<svg viewBox="0 0 20 20" xmlns="http://www.w3.org/2000/svg" xmlns:xlink="http://www.w3.org/1999/xlink" width="20.000000" height="20.000000" fill="none" customFrame="#000000">
	<g id="admin">
		<g id="security-user">
			<path id="Vector" opacity="0" />
			<path id="Vector" d="M15.4166 3.42396L11.2582 1.86563C10.5666 1.60729 9.43322 1.60729 8.74155 1.86563L4.58322 3.42396C3.62489 3.78229 2.84155 4.91562 2.84155 5.93229L2.84155 12.124C2.84155 13.1073 3.49155 14.399 4.28322 14.9906L7.86655 17.6656C9.04155 18.549 10.9749 18.549 12.1499 17.6656L15.7332 14.9906C16.5249 14.399 17.1749 13.1073 17.1749 12.124L17.1749 5.93229C17.1582 4.91562 16.3749 3.78229 15.4166 3.42396ZM9.94155 5.85729C10.9249 5.85729 11.7249 6.65729 11.7249 7.64062C11.7249 8.60729 10.9666 9.38229 10.0082 9.41563L9.99155 9.41563L9.97489 9.41563C9.95822 9.41563 9.94155 9.41563 9.92489 9.41563C8.92489 9.38229 8.17489 8.60729 8.17489 7.64062C8.16655 6.65729 8.96655 5.85729 9.94155 5.85729ZM11.8249 13.6323C11.3166 13.9656 10.6582 14.1406 9.99989 14.1406C9.34155 14.1406 8.67489 13.974 8.17489 13.6323C7.69989 13.3156 7.44155 12.8823 7.43322 12.4073C7.43322 11.9406 7.69989 11.4906 8.17489 11.174C9.18322 10.5073 10.8249 10.5073 11.8332 11.174C12.3082 11.4906 12.5749 11.924 12.5749 12.399C12.5666 12.8656 12.2999 13.3156 11.8249 13.6323Z" fill="rgb(255,255,255)" fill-rule="nonzero" />
		</g>
	</g>
</svg>
