<svg width="24.000000" height="24.000000" viewBox="0 0 24 24" fill="none" xmlns="http://www.w3.org/2000/svg" xmlns:xlink="http://www.w3.org/1999/xlink">
	<desc>
			Created with Pixso.
	</desc>
	<defs/>
	<mask id="mask3_1169" mask-type="alpha" maskUnits="userSpaceOnUse" x="0.000000" y="0.000000" width="24.000000" height="24.000000">
		<rect id="Bounding box" width="24.000000" height="24.000000" fill="#D9D9D9" fill-opacity="1.000000"/>
	</mask>
	<g mask="url(#mask3_1169)">
		<path id="arrow_back" d="M10.87 19.29L4.27 12.7C4.17 12.6 4.1 12.49 4.06 12.37C4.02 12.25 4 12.13 4 12C4 11.86 4.02 11.74 4.06 11.62C4.1 11.5 4.17 11.4 4.27 11.3L10.87 4.7C11.05 4.51 11.28 4.42 11.56 4.41C11.83 4.4 12.07 4.5 12.27 4.7C12.47 4.88 12.57 5.11 12.58 5.38C12.59 5.66 12.5 5.9 12.3 6.1L7.4 11L18.57 11C18.85 11 19.09 11.09 19.28 11.28C19.47 11.47 19.57 11.71 19.57 12C19.57 12.28 19.47 12.52 19.28 12.71C19.09 12.9 18.85 13 18.57 13L7.4 13L12.3 17.9C12.48 18.08 12.57 18.31 12.58 18.6C12.59 18.88 12.5 19.11 12.3 19.29C12.11 19.5 11.88 19.6 11.6 19.6C11.31 19.6 11.07 19.5 10.87 19.29L10.87 19.29Z" fill="#000000" fill-opacity="1.000000" fill-rule="evenodd"/>
	</g>
</svg>
