<svg
    version="1.1"
    xmlns="http://www.w3.org/2000/svg"
    xmlns:xlink="http://www.w3.org/1999/xlink"
    width="40"
    height="40"
    viewbox="0 0 40 40">
    <g>
        <g transform="translate(20,20)">
            <g class="am-weather-sun am-weather-sun-shiny am-weather-easing-ease-in-out">
                <g>
                    <line fill="none" stroke="orange" stroke-linecap="round" stroke-width="2" transform="translate(0,9)" x1="0" x2="0" y1="0" y2="3" />
                </g>
                <g transform="rotate(45)">
                    <line fill="none" stroke="orange" stroke-linecap="round" stroke-width="2" transform="translate(0,9)" x1="0" x2="0" y1="0" y2="3" />
                </g>
                <g transform="rotate(90)">
                    <line fill="none" stroke="orange" stroke-linecap="round" stroke-width="2" transform="translate(0,9)" x1="0" x2="0" y1="0" y2="3" />
                </g>
                <g transform="rotate(135)">
                    <line fill="none" stroke="orange" stroke-linecap="round" stroke-width="2" transform="translate(0,9)" x1="0" x2="0" y1="0" y2="3" />
                </g>
                <g transform="rotate(180)">
                    <line fill="none" stroke="orange" stroke-linecap="round" stroke-width="2" transform="translate(0,9)" x1="0" x2="0" y1="0" y2="3" />
                </g>
                <g transform="rotate(225)">
                    <line fill="none" stroke="orange" stroke-linecap="round" stroke-width="2" transform="translate(0,9)" x1="0" x2="0" y1="0" y2="3" />
                </g>
                <g transform="rotate(270)">
                    <line fill="none" stroke="orange" stroke-linecap="round" stroke-width="2" transform="translate(0,9)" x1="0" x2="0" y1="0" y2="3" />
                </g>
                <g transform="rotate(315)">
                    <line fill="none" stroke="orange" stroke-linecap="round" stroke-width="2" transform="translate(0,9)" x1="0" x2="0" y1="0" y2="3" />
                </g>
            </g>
            <circle cx="0" cy="0" fill="orange" r="5" stroke="orange" stroke-width="2"/>
        </g>
    </g>
</svg>