<svg viewBox="0 0 20 20" xmlns="http://www.w3.org/2000/svg" xmlns:xlink="http://www.w3.org/1999/xlink" width="20.000000" height="20.000000" fill="none">
	<rect id="coin-line" width="20.000000" height="20.000000" x="0.000000" y="0.000000" fill="rgb(255,255,255)" fill-opacity="0" />
	<path id="矢量 5" d="M9.99992 3.33331C15.0624 3.33331 19.1666 5.57165 19.1666 8.33331L19.1666 11.6666C19.1666 14.4283 15.0624 16.6666 9.99992 16.6666C5.02742 16.6666 0.979919 14.5075 0.837419 11.8141L0.833252 11.6666L0.833252 8.33331C0.833252 5.57165 4.93742 3.33331 9.99992 3.33331ZM9.99992 13.3333C6.89992 13.3333 4.15825 12.4941 2.49992 11.2083L2.49992 11.6666C2.49992 13.235 5.73575 15 9.99992 15C14.1749 15 17.3649 13.3083 17.4958 11.765L17.4999 11.6666L17.5008 11.2083C15.8424 12.4933 13.1008 13.3333 9.99992 13.3333ZM9.99992 4.99998C5.73575 4.99998 2.49992 6.76498 2.49992 8.33331C2.49992 9.90165 5.73575 11.6666 9.99992 11.6666C14.2641 11.6666 17.4999 9.90165 17.4999 8.33331C17.4999 6.76498 14.2641 4.99998 9.99992 4.99998Z" fill="rgb(0,0,0)" fill-rule="evenodd" />
</svg>
