<svg width="26.610168" height="26.605438" viewBox="0 0 26.6102 26.6054" fill="none" xmlns="http://www.w3.org/2000/svg" xmlns:xlink="http://www.w3.org/1999/xlink">
	<desc>
			Created with Pixso.
	</desc>
	<defs/>
	<path id="smile" d="M13.31 26.1C10.77 26.1 8.3 25.35 6.19 23.94C4.09 22.54 2.45 20.54 1.48 18.2C0.51 15.86 0.26 13.29 0.75 10.81C1.25 8.32 2.46 6.04 4.25 4.25C6.04 2.46 8.33 1.24 10.81 0.75C13.29 0.26 15.86 0.51 18.2 1.48C20.54 2.45 22.54 4.09 23.95 6.19C25.35 8.3 26.11 10.77 26.11 13.3C26.1 16.7 24.75 19.95 22.35 22.35C19.95 24.75 16.7 26.1 13.31 26.1ZM13.31 1.78C10.77 1.78 8.3 2.62 6.29 4.16C4.28 5.71 2.83 7.87 2.18 10.32C1.52 12.77 1.69 15.37 2.66 17.71C3.63 20.05 5.35 22.01 7.54 23.28C9.74 24.55 12.29 25.05 14.81 24.72C17.32 24.39 19.66 23.24 21.45 21.45C23.24 19.65 24.39 17.32 24.73 14.81C25.06 12.29 24.55 9.74 23.28 7.54C22.27 5.79 20.81 4.34 19.06 3.33C17.31 2.32 15.33 1.79 13.31 1.78ZM13.95 19.7L12.67 19.7C11.48 19.7 10.34 19.23 9.5 18.39C8.66 17.55 8.19 16.41 8.19 15.22C8.19 15.05 8.25 14.89 8.37 14.77C8.49 14.65 8.66 14.58 8.83 14.58C8.99 14.58 9.16 14.65 9.28 14.77C9.4 14.89 9.47 15.05 9.47 15.22C9.47 16.07 9.8 16.88 10.4 17.48C11 18.08 11.82 18.42 12.67 18.42L13.95 18.42C14.79 18.42 15.61 18.08 16.21 17.48C16.81 16.88 17.14 16.07 17.14 15.22C17.14 15.05 17.21 14.89 17.33 14.77C17.45 14.65 17.61 14.58 17.78 14.58C17.95 14.58 18.12 14.65 18.24 14.77C18.36 14.89 18.43 15.05 18.43 15.22C18.42 16.41 17.95 17.55 17.11 18.39C16.27 19.23 15.13 19.7 13.95 19.7ZM17.14 12.02C16.89 12.02 16.64 11.95 16.43 11.81C16.22 11.67 16.06 11.47 15.96 11.23C15.87 11 15.84 10.74 15.89 10.49C15.94 10.24 16.06 10.02 16.24 9.84C16.42 9.66 16.65 9.54 16.9 9.49C17.14 9.44 17.4 9.46 17.64 9.56C17.87 9.66 18.07 9.82 18.21 10.03C18.35 10.24 18.43 10.49 18.43 10.74C18.42 11.08 18.29 11.41 18.05 11.65C17.81 11.89 17.48 12.02 17.15 12.02L17.14 12.02ZM9.46 12.02C9.21 12.02 8.96 11.95 8.75 11.81C8.54 11.67 8.38 11.47 8.28 11.23C8.19 11 8.16 10.74 8.21 10.49C8.26 10.24 8.38 10.02 8.56 9.84C8.74 9.66 8.97 9.54 9.22 9.49C9.46 9.44 9.72 9.46 9.96 9.56C10.19 9.66 10.39 9.82 10.53 10.03C10.67 10.24 10.75 10.49 10.75 10.74C10.74 11.08 10.61 11.41 10.37 11.65C10.13 11.89 9.8 12.02 9.47 12.02L9.46 12.02Z" fill="#18191F" fill-opacity="1.000000" fill-rule="evenodd"/>
	<path id="smile" d="M6.19 23.94C4.09 22.54 2.45 20.54 1.48 18.2C0.51 15.86 0.26 13.29 0.75 10.81C1.25 8.32 2.46 6.04 4.25 4.25C6.04 2.46 8.33 1.24 10.81 0.75C13.29 0.26 15.86 0.51 18.2 1.48C20.54 2.45 22.54 4.09 23.95 6.19C25.35 8.3 26.11 10.77 26.11 13.3C26.1 16.7 24.75 19.95 22.35 22.35C19.95 24.75 16.7 26.1 13.31 26.1C10.77 26.1 8.3 25.35 6.19 23.94ZM6.29 4.16C4.28 5.71 2.83 7.87 2.18 10.32C1.52 12.77 1.69 15.37 2.66 17.71C3.63 20.05 5.35 22.01 7.54 23.28C9.74 24.55 12.29 25.05 14.81 24.72C17.32 24.39 19.66 23.24 21.45 21.45C23.24 19.65 24.39 17.32 24.73 14.81C25.06 12.29 24.55 9.74 23.28 7.54C22.27 5.79 20.81 4.34 19.06 3.33C17.31 2.32 15.33 1.79 13.31 1.78C10.77 1.78 8.3 2.62 6.29 4.16ZM12.67 19.7C11.48 19.7 10.34 19.23 9.5 18.39C8.66 17.55 8.19 16.41 8.19 15.22C8.19 15.05 8.25 14.89 8.37 14.77C8.49 14.65 8.66 14.58 8.83 14.58C8.99 14.58 9.16 14.65 9.28 14.77C9.4 14.89 9.47 15.05 9.47 15.22C9.47 16.07 9.8 16.88 10.4 17.48C11 18.08 11.82 18.42 12.67 18.42L13.95 18.42C14.79 18.42 15.61 18.08 16.21 17.48C16.81 16.88 17.14 16.07 17.14 15.22C17.14 15.05 17.21 14.89 17.33 14.77C17.45 14.65 17.61 14.58 17.78 14.58C17.95 14.58 18.12 14.65 18.24 14.77C18.36 14.89 18.43 15.05 18.43 15.22C18.42 16.41 17.95 17.55 17.11 18.39C16.27 19.23 15.13 19.7 13.95 19.7L12.67 19.7ZM16.43 11.81C16.22 11.67 16.06 11.47 15.96 11.23C15.87 11 15.84 10.74 15.89 10.49C15.94 10.24 16.06 10.02 16.24 9.84C16.42 9.66 16.65 9.54 16.9 9.49C17.14 9.44 17.4 9.46 17.64 9.56C17.87 9.66 18.07 9.82 18.21 10.03C18.35 10.24 18.43 10.49 18.43 10.74C18.42 11.08 18.29 11.41 18.05 11.65C17.81 11.89 17.48 12.02 17.15 12.02L17.14 12.02C16.89 12.02 16.64 11.95 16.43 11.81ZM8.75 11.81C8.54 11.67 8.38 11.47 8.28 11.23C8.19 11 8.16 10.74 8.21 10.49C8.26 10.24 8.38 10.02 8.56 9.84C8.74 9.66 8.97 9.54 9.22 9.49C9.46 9.44 9.72 9.46 9.96 9.56C10.19 9.66 10.39 9.82 10.53 10.03C10.67 10.24 10.75 10.49 10.75 10.74C10.74 11.08 10.61 11.41 10.37 11.65C10.13 11.89 9.8 12.02 9.47 12.02L9.46 12.02C9.21 12.02 8.96 11.95 8.75 11.81Z" stroke="#18191F" stroke-opacity="1.000000" stroke-width="1.000000"/>
</svg>
