<svg viewBox="0 0 20 20" xmlns="http://www.w3.org/2000/svg" xmlns:xlink="http://www.w3.org/1999/xlink" width="20.000000" height="20.000000" fill="none">
	<rect id="fresh" width="20.000000" height="20.000000" x="0.000000" y="0.000000" />
	<g id="g">
		<path id="path" d="M4.56014 14.4184C4.35764 14.3492 4.15627 14.3616 3.93802 14.4702C3.76678 14.565 3.63747 14.5249 3.55009 14.3497C3.4627 14.1745 3.50839 14.0471 3.68714 13.9673C4.03139 13.7952 4.38858 13.7648 4.74183 13.8857C5.08496 14.0033 5.40052 14.2542 5.69302 14.6001C5.77289 14.6941 5.85558 14.8026 5.93433 14.9072L6.05471 15.0647C6.17396 15.2172 6.29602 15.3584 6.44002 15.481C6.71733 15.7178 7.10096 15.9062 7.75008 15.9062C8.51171 15.9062 9.06577 15.652 9.55852 15.3499C9.68283 15.274 9.80264 15.1952 9.92246 15.1154C10.0276 15.0462 10.1756 14.9478 10.2808 14.8814C10.5187 14.7323 10.7701 14.5928 11.0458 14.5118C11.2741 14.4443 11.5318 14.4364 11.781 14.4539C12.033 14.4707 12.2956 14.5157 12.5415 14.5652C12.6911 14.5956 12.8435 14.6294 12.983 14.6609C13.0685 14.6804 13.1484 14.6978 13.2215 14.7132C13.4278 14.7582 13.5727 14.7809 13.6563 14.7812C14.0523 14.7812 14.2515 14.6215 14.5248 14.4021L14.6351 14.3138C14.801 14.1844 15.0001 14.0438 15.2662 13.9634C15.5345 13.8813 15.849 13.8655 16.2421 13.9431C16.4359 13.9726 16.5138 14.0835 16.4757 14.2758C16.4376 14.4681 16.3234 14.5409 16.133 14.4944C15.8124 14.4319 15.5941 14.4511 15.4299 14.5011C15.264 14.5518 15.1306 14.6406 14.9827 14.7565C14.9501 14.782 14.9169 14.8088 14.8831 14.8369C14.6081 15.0603 14.2599 15.3438 13.6563 15.3438C13.5028 15.3438 13.302 15.3055 13.104 15.2633C13.02 15.2453 12.935 15.2266 12.8491 15.2071C12.7153 15.1773 12.5769 15.1463 12.4301 15.1171C12.2029 15.0689 11.9736 15.035 11.7421 15.0153C11.5228 14.9995 11.3411 15.0108 11.205 15.0513C11.0041 15.1103 10.8039 15.2172 10.58 15.3578C10.4816 15.4197 10.382 15.4861 10.2763 15.5564C10.1559 15.637 9.98602 15.7469 9.85214 15.8298C9.31215 16.1611 8.65402 16.4688 7.75008 16.4688C6.97158 16.4688 6.45746 16.2353 6.07496 15.9096C5.90385 15.7593 5.74954 15.5934 5.61202 15.4118L5.47027 15.2262C5.3994 15.1328 5.33527 15.0479 5.26383 14.9629C5.00846 14.6614 4.77221 14.4904 4.56014 14.4184ZM14.3595 7.04688C14.3595 7.47403 14.2084 7.83863 13.9064 8.14068C13.6043 8.44273 13.2397 8.59375 12.8126 8.59375C12.3854 8.59375 12.0208 8.44273 11.7188 8.14068C11.4167 7.83863 11.2657 7.47403 11.2657 7.04688C11.2657 6.61972 11.4167 6.25512 11.7188 5.95307C12.0208 5.65102 12.3854 5.5 12.8126 5.5C13.2397 5.5 13.6043 5.65102 13.9064 5.95307C14.2084 6.25512 14.3595 6.61972 14.3595 7.04688ZM7.89071 7.75C8.31786 7.75 8.68246 7.59898 8.98451 7.29693C9.28656 6.99488 9.43758 6.63028 9.43758 6.20313C9.43758 5.77597 9.28656 5.41137 8.98451 5.10932C8.68246 4.80727 8.31786 4.65625 7.89071 4.65625C7.46355 4.65625 7.09895 4.80727 6.7969 5.10932C6.49485 5.41137 6.34383 5.77597 6.34383 6.20313C6.34383 6.63028 6.49485 6.99488 6.7969 7.29693C7.09895 7.59898 7.46355 7.75 7.89071 7.75ZM7.13189 9.21475C7.45829 9.03452 7.71254 9.10708 7.89464 9.43244C7.99702 9.60737 8.13708 9.76488 8.28277 9.90494C8.63899 10.252 9.06087 10.4748 9.54839 10.5732C10.1278 10.6896 10.6576 10.594 11.0525 10.4624C11.2107 10.4094 11.364 10.3451 11.5126 10.2694C11.5625 10.2443 11.6113 10.2167 11.6589 10.1867C11.9694 9.98829 12.2266 10.0426 12.4304 10.3496C12.6343 10.6566 12.5845 10.9147 12.281 11.1239C12.1997 11.1764 12.1159 11.2246 12.0296 11.2684C11.8811 11.3455 11.6696 11.4428 11.4086 11.5294C10.8894 11.7027 10.1542 11.8416 9.32733 11.6768C8.62537 11.5351 8.0175 11.2149 7.50371 10.7161C7.34424 10.5634 7.1993 10.398 7.06889 10.2199C7.01227 10.1422 6.95977 10.0618 6.91139 9.97862C6.73055 9.65058 6.80405 9.39595 7.13189 9.21475Z" fill="rgb(255,255,255)" fill-rule="nonzero" />
		<path id="path" d="M4.10894 3.23312C5.45106 1.83081 7.43613 1 10 1C12.5639 1 14.5489 1.83138 15.8911 3.23313C17.2281 4.62869 17.875 6.53556 17.875 8.59375C17.875 9.61469 17.7164 10.5979 17.3924 11.5007L17.1842 12.1774C17.1786 12.2376 17.1994 12.3361 17.3249 12.4902C17.4632 12.6617 17.6781 12.8322 17.9144 12.9852C18.1405 13.1314 18.4217 13.3204 18.6366 13.5949C18.8684 13.8914 19 14.2542 19 14.7087C19 15.0968 18.8048 15.4377 18.586 15.6728C18.3638 15.9119 18.0477 16.1177 17.6888 16.1791C17.4722 16.1959 17.2523 16.1937 17.1229 16.1864C16.9772 16.1785 16.8946 16.1751 16.7995 16.1903C16.7039 16.2049 16.5655 16.2426 16.3366 16.3478C16.1442 16.4372 16.0221 16.5419 15.8601 16.6853C15.7212 16.8085 15.517 16.9885 15.2521 17.1128C14.9776 17.2411 14.6586 17.3086 14.2536 17.3125C13.7434 17.3687 13.24 17.2219 12.8631 17.1111C12.1937 16.9154 11.8219 16.8422 11.5294 17.0442C11.3905 17.1404 11.2594 17.2366 11.1261 17.3356C10.7701 17.5977 10.3673 17.8941 9.8695 18.1011C9.35425 18.3149 8.74675 18.4375 7.93112 18.4375C6.26444 18.4375 4.74006 17.4582 3.69381 16.4249C3.59369 16.3264 3.51831 16.2938 3.4435 16.2764C3.34225 16.2533 3.22356 16.2511 2.9935 16.2527L2.82756 16.2539C1.88144 16.3124 1 15.6081 1 14.6204C1 14.3054 1.09 13.9769 1.24975 13.6956C1.4095 13.4144 1.66094 13.1399 2.01363 12.9942C2.35056 12.8547 2.59694 12.6949 2.73025 12.5273C2.8315 12.3996 2.88663 12.2494 2.80338 11.9918C2.35056 10.9608 2.125 9.79919 2.125 8.59375C2.125 6.53612 2.77187 4.62925 4.10894 3.23312ZM4.92175 4.01106C3.8215 5.15969 3.25 6.76787 3.25 8.59375C3.25 9.66419 3.44687 10.6609 3.83106 11.5328L3.85694 11.5947C4.07181 12.2269 3.95144 12.7984 3.61169 13.2265C3.30175 13.6174 2.845 13.8677 2.44394 14.0337C2.37981 14.0601 2.29825 14.1271 2.2285 14.2502C2.16296 14.3649 2.12846 14.4883 2.125 14.6204C2.125 14.8791 2.37925 15.1598 2.76737 15.1306L2.98394 15.1283C3.17969 15.1261 3.45362 15.1238 3.69775 15.1806C3.979 15.2464 4.23944 15.3831 4.48413 15.625C5.43363 16.5621 6.68913 17.3125 7.93113 17.3125C8.62862 17.3125 9.08425 17.209 9.43806 17.0622C9.80031 16.9114 10.0855 16.7044 10.459 16.4294C10.5901 16.3321 10.7357 16.2252 10.8899 16.1189C11.6616 15.5856 12.5104 15.8354 13.0673 15.9991L13.1348 16.0188C13.5792 16.1481 13.8801 16.2269 14.1456 16.192L14.2188 16.1875C14.5158 16.1875 14.6749 16.1403 14.7751 16.0936C14.8831 16.0429 14.9646 15.9754 15.1154 15.8421C15.2819 15.6959 15.5159 15.4878 15.8646 15.3269C16.1588 15.1908 16.4001 15.1137 16.6263 15.0788C16.8456 15.0451 17.0268 15.0546 17.1668 15.0619C17.2838 15.0681 17.3946 15.0743 17.5167 15.0664C17.613 15.0353 17.6949 14.9821 17.7625 14.9067C17.8598 14.8021 17.875 14.7211 17.875 14.7087C17.875 14.4921 17.8193 14.3763 17.7507 14.2879C17.6641 14.1777 17.5313 14.077 17.3035 13.9296C17.0256 13.7502 16.6977 13.5038 16.4502 13.1984C16.2027 12.8924 15.9822 12.4576 16.0829 11.9423L16.3247 11.1447C16.6032 10.3729 16.75 9.50332 16.75 8.59375C16.75 6.76788 16.1785 5.15969 15.0782 4.01107C13.9836 2.8675 12.3119 2.125 10 2.125C7.68812 2.125 6.01638 2.8675 4.92175 4.01106Z" fill="rgb(255,255,255)" fill-rule="nonzero" />
	</g>
</svg>
