<svg width="41.714668" height="32.089188" viewBox="0 0 41.7147 32.0892" fill="none" xmlns="http://www.w3.org/2000/svg" xmlns:xlink="http://www.w3.org/1999/xlink">
	<path id="path" d="M37.77 21.8C41.97 18.71 40.68 17.13 40.68 17.13C37.72 12.09 32.33 18.33 32.33 18.33C20.31 12.91 14.1 13.54 14.1 13.54C1.51 14.29 0.84 21.8 0.84 21.8C0.84 31.4 12.81 31.21 12.81 31.21C21.4 31.71 32.04 25.66 32.04 25.66C38.72 30.77 39.96 27.48 39.96 27.48C42.02 24.46 37.77 21.8 37.77 21.8Z" fill="#ED8F26" fill-opacity="1.000000" fill-rule="nonzero"/>
	<path id="path" d="M13.86 32.08C13.5 32.08 13.15 32.07 12.8 32.05C12.24 32.07 6.23 32.02 2.63 28.47C0.88 26.75 0 24.51 0 21.8L0 21.73C0.01 21.64 0.21 19.55 2.11 17.4C4.58 14.61 8.59 13.03 14.04 12.7C14.5 12.65 20.61 12.22 32.12 17.32C33.11 16.32 35.59 14.11 38.07 14.34C39.43 14.46 40.54 15.25 41.39 16.68C41.52 16.87 41.79 17.37 41.69 18.14C41.55 19.28 40.69 20.5 39.15 21.79C39.94 22.47 40.99 23.6 41.29 25C41.5 26.01 41.3 26.98 40.7 27.9C40.56 28.19 40.1 28.93 39.03 29.23C37.32 29.72 34.95 28.85 31.97 26.66C29.85 27.8 21.39 32.08 13.86 32.08ZM12.83 30.36L12.87 30.37C21.1 30.85 31.52 24.98 31.63 24.92L32.11 24.65L32.56 24.99C36.09 27.69 37.8 27.8 38.51 27.63C38.97 27.51 39.14 27.24 39.18 27.18L39.21 27.06L39.26 27.01C39.63 26.47 39.75 25.93 39.63 25.36C39.36 24.06 37.87 22.87 37.32 22.52L36.27 21.86L37.27 21.13C40.2 18.97 40.05 17.84 39.99 17.65L39.92 17.58L39.95 17.57C39.38 16.6 38.72 16.1 37.92 16.02C36.05 15.85 33.71 18.03 32.97 18.89L32.56 19.37L31.98 19.11C20.37 13.87 14.25 14.38 14.19 14.38L14.16 14.39C2.82 15.07 1.76 21.28 1.69 21.85C1.7 24.07 2.41 25.89 3.81 27.27C7 30.41 12.75 30.38 12.8 30.37L12.83 30.36Z" fill="#040000" fill-opacity="1.000000" fill-rule="nonzero"/>
	<path id="path" d="M31.49 11.21C31.32 8.57 30.97 6.64 29.03 4.76C27.23 3.02 25.08 1.63 22.71 0.81C19.61 -0.26 16.14 -0.31 13.08 0.86C10.82 1.73 8.82 3.26 7.32 5.17C6.3 6.46 5.5 7.94 5.15 9.54C4.81 11.14 4.95 12.87 5.71 14.32C5.7 14.33 5.69 14.33 5.68 14.34C5.75 14.48 5.8 14.63 5.83 14.78C5.84 14.81 5.86 14.83 5.87 14.86C5.95 14.97 6.02 15.08 6.09 15.19C6.27 15.52 6.42 15.86 6.62 16.19C6.64 16.23 6.66 16.26 6.68 16.3C6.85 16.4 7.02 16.54 7.18 16.75C9.04 19.08 11.95 19.68 14.47 18.48C14.74 18.52 15 18.57 15.27 18.62C16.47 18.88 17.63 19.33 18.84 19.59C20.04 19.84 21.35 19.9 22.47 19.39C23.11 19.1 23.69 18.64 24.39 18.53C24.39 18.53 26.89 18.87 27.3 18.6C27.3 18.6 28.85 18.32 29.78 17.61C29.8 17.6 29.83 17.59 29.85 17.59L29.82 17.58C30 17.44 30.16 17.28 30.27 17.1C31.15 16.11 31.45 14.8 31.52 13.45C31.56 12.7 31.53 11.94 31.49 11.21ZM29.29 14.35C28.86 15.99 27.45 16.81 25.67 16.36C25.88 15.4 26.15 14.52 26.25 13.62C26.3 13.13 26.19 12.54 25.93 12.13C25.77 11.87 25.04 11.66 24.85 11.8C24.49 12.08 24.24 12.59 24.12 13.05C23.86 13.98 23.9 15.02 23.49 15.85C22.65 17.58 20.94 17.71 19.3 17.55C17.37 17.36 15.85 16.47 15.25 14.44C15.11 13.98 14.97 13.44 14.64 13.13C14.33 12.83 13.74 12.6 13.34 12.68C12.72 12.81 12.5 13.36 12.76 14.01C13.05 14.7 13.31 15.4 13.65 16.27C11.63 16.02 9.88 15.68 8.48 14.46C7.21 13.37 6.91 11.91 7.27 10.34C8.19 6.26 10.85 3.74 14.71 2.5C18.72 1.21 25.12 3.23 27.65 6.51C29.44 8.83 30.03 11.48 29.29 14.35Z" fill="#040000" fill-opacity="1.000000" fill-rule="nonzero"/>
	<path id="path" d="M29.29 14.35C28.86 15.99 27.45 16.81 25.67 16.36C25.88 15.4 26.15 14.52 26.25 13.62C26.3 13.13 26.19 12.54 25.93 12.13C25.77 11.87 25.04 11.66 24.85 11.8C24.49 12.08 24.24 12.59 24.12 13.05C23.86 13.98 23.9 15.02 23.49 15.85C22.65 17.58 20.94 17.71 19.3 17.55C17.37 17.36 15.85 16.47 15.25 14.44C15.11 13.98 14.97 13.44 14.64 13.13C14.33 12.83 13.74 12.6 13.34 12.68C12.72 12.81 12.5 13.36 12.76 14.01C13.05 14.7 13.31 15.4 13.65 16.27C11.63 16.02 9.88 15.68 8.48 14.46C7.21 13.37 6.91 11.91 7.27 10.34C8.19 6.26 10.85 3.74 14.71 2.5C18.72 1.21 25.12 3.23 27.65 6.51C29.44 8.83 30.03 11.48 29.29 14.35Z" fill="#FFFFFF" fill-opacity="1.000000" fill-rule="nonzero"/>
	<path id="path" d="M10.82 23.07C10.82 24.31 9.81 25.32 8.57 25.32C7.32 25.32 6.31 24.31 6.31 23.07C6.31 21.82 7.32 20.81 8.57 20.81C9.81 20.81 10.82 21.82 10.82 23.07Z" fill="#040000" fill-opacity="1.000000" fill-rule="nonzero"/>
	<path id="path" d="M10.26 22.56C10.76 23.15 10.7 24.02 10.11 24.52C9.53 25.02 8.66 24.96 8.16 24.38C7.66 23.79 7.72 22.92 8.3 22.42C8.89 21.92 9.76 21.98 10.26 22.56Z" fill="#FFFFFF" fill-opacity="1.000000" fill-rule="nonzero"/>
	<path id="path" d="M34.22 9.85C34.17 9.85 34.13 9.84 34.08 9.82C33.92 9.75 33.86 9.56 33.93 9.4C34.41 8.41 33.62 7.51 33.58 7.47C33.47 7.34 33.47 7.14 33.6 7.03C33.73 6.91 33.93 6.92 34.05 7.05C34.1 7.1 35.16 8.29 34.5 9.67C34.45 9.79 34.34 9.85 34.22 9.85Z" fill="#040000" fill-opacity="1.000000" fill-rule="nonzero"/>
	<path id="path" d="M35.32 9.85C35.27 9.85 35.23 9.84 35.18 9.82C35.03 9.74 34.96 9.56 35.03 9.4C35.76 7.87 34.55 6.51 34.5 6.46C34.39 6.33 34.39 6.13 34.52 6.01C34.65 5.89 34.85 5.9 34.97 6.03C35.03 6.1 36.52 7.76 35.61 9.67C35.55 9.79 35.44 9.85 35.32 9.85Z" fill="#040000" fill-opacity="1.000000" fill-rule="nonzero"/>
</svg>
