<svg viewBox="0 0 20 20" xmlns="http://www.w3.org/2000/svg" xmlns:xlink="http://www.w3.org/1999/xlink" width="20.000000" height="20.000000" fill="none">
	<rect id="member" width="20.000000" height="20.000000" x="0.000000" y="0.000000" fill="rgb(255,255,255)" fill-opacity="0" />
	<path id="path" d="M14.4118 4.21763C13.5882 2.32254 11.6998 1 9.5 1C7.30022 1 5.41183 2.32254 4.58817 4.21763C4.03906 4.26451 3.60714 4.72321 3.60714 5.28571L3.60714 7.42857C3.60714 7.99107 4.03906 8.44978 4.58817 8.49665C5.41183 10.3917 7.30022 11.7143 9.5 11.7143C11.6998 11.7143 13.5882 10.3917 14.4118 8.49665C14.9609 8.44978 15.3929 7.99107 15.3929 7.42857L15.3929 5.28571C15.3929 4.72321 14.9609 4.26451 14.4118 4.21763ZM13.25 5.82143L13.25 6.35714C13.25 8.1317 11.8103 9.57143 10.0357 9.57143L8.96428 9.57143C7.18973 9.57143 5.75 8.1317 5.75 6.35714L5.75 5.82143C5.75 4.93415 6.46987 4.21429 7.35714 4.21429L11.6429 4.21429C12.5301 4.21429 13.25 4.93415 13.25 5.82143ZM8.33817 6.44754L8.13728 5.73772C8.10714 5.62723 8.0067 5.55357 7.89286 5.55357C7.77902 5.55357 7.67857 5.62723 7.64844 5.73772L7.44754 6.44754L6.73772 6.64844C6.62723 6.67857 6.55357 6.77902 6.55357 6.89286C6.55357 7.0067 6.62723 7.10714 6.73772 7.13728L7.44754 7.33817L7.64844 8.04799C7.67857 8.15848 7.77902 8.23214 7.89286 8.23214C8.0067 8.23214 8.10714 8.15848 8.13728 8.04799L8.33817 7.33817L9.04799 7.13728C9.15848 7.10714 9.23214 7.0067 9.23214 6.89286C9.23214 6.77902 9.15848 6.67857 9.04799 6.64844L8.33817 6.44754ZM5.77344 11.5971C3.56362 12.471 2 14.6272 2 17.1484C2 17.6975 2.44531 18.1429 2.99442 18.1429L6.28571 18.1429L6.28571 16C6.28571 15.4074 6.76451 14.9286 7.35714 14.9286L11.6429 14.9286C12.2355 14.9286 12.7143 15.4074 12.7143 16L12.7143 18.1429L16.0056 18.1429C16.5547 18.1429 17 17.6975 17 17.1484C17 14.6272 15.4364 12.471 13.2266 11.5971C12.1752 12.3437 10.8895 12.7857 9.5 12.7857C8.11049 12.7857 6.82478 12.3437 5.77344 11.5971ZM7.89286 16C7.59821 16 7.35714 16.2411 7.35714 16.5357L7.35714 18.1429L8.42857 18.1429L8.42857 16.5357C8.42857 16.2411 8.1875 16 7.89286 16ZM11.1071 17.0714C11.1782 17.0714 11.2465 17.0578 11.3122 17.0306C11.3778 17.0035 11.4357 16.9648 11.4859 16.9145C11.5362 16.8643 11.5749 16.8064 11.6021 16.7407C11.6293 16.6751 11.6429 16.6068 11.6429 16.5357C11.6429 16.4647 11.6293 16.3963 11.6021 16.3307C11.5749 16.2651 11.5362 16.2071 11.4859 16.1569C11.4357 16.1067 11.3778 16.068 11.3122 16.0408C11.2465 16.0136 11.1782 16 11.1071 16C11.0361 16 10.9678 16.0136 10.9021 16.0408C10.8365 16.068 10.7786 16.1067 10.7283 16.1569C10.6781 16.2071 10.6394 16.2651 10.6122 16.3307C10.585 16.3963 10.5714 16.4647 10.5714 16.5357C10.5714 16.6068 10.585 16.6751 10.6122 16.7407C10.6394 16.8064 10.6781 16.8643 10.7283 16.9145C10.7786 16.9648 10.8365 17.0035 10.9021 17.0306C10.9678 17.0578 11.0361 17.0714 11.1071 17.0714Z" fill="rgb(255,255,255)" fill-rule="nonzero" />
</svg>
