<svg width="15" height="15" viewBox="0 -3 15 12" fill="none" xmlns="http://www.w3.org/2000/svg" xmlns:xlink="http://www.w3.org/1999/xlink">
	<path d="M7.33 0C11.38 0 14.66 1.79 14.66 4L14.66 6.66C14.66 8.87 11.38 10.66 7.33 10.66C3.35 10.66 0.11 8.93 0 6.78L0 6.66L0 4C0 1.79 3.28 0 7.33 0ZM7.33 8C4.85 8 2.65 7.32 1.33 6.3L1.33 6.66C1.33 7.92 3.92 9.33 7.33 9.33C10.67 9.33 13.22 7.98 13.33 6.74L13.33 6.66L13.33 6.3C12 7.32 9.81 8 7.33 8ZM7.33 1.33C3.92 1.33 1.33 2.74 1.33 4C1.33 5.25 3.92 6.66 7.33 6.66C10.74 6.66 13.33 5.25 13.33 4C13.33 2.74 10.74 1.33 7.33 1.33Z" fill="#FFFFFF" fill-opacity="1.000000" fill-rule="evenodd"/>
</svg>
