<svg viewBox="0 0 20 20" xmlns="http://www.w3.org/2000/svg" xmlns:xlink="http://www.w3.org/1999/xlink" width="20.000000" height="20.000000" fill="none">
	<rect id="op" width="20.000000" height="20.000000" x="0.000000" y="0.000000" />
	<g id="g">
		<path id="path" d="M9.16675 1.66669C8.61421 1.66669 8.08271 1.77241 7.57223 1.98386C7.06176 2.1953 6.61117 2.49637 6.22047 2.88708C5.82977 3.27778 5.5287 3.72836 5.31725 4.23884C5.1058 4.74931 5.00008 5.28082 5.00008 5.83335C5.00008 6.38589 5.1058 6.91739 5.31725 7.42787C5.5287 7.93834 5.82977 8.38893 6.22047 8.77963C6.61117 9.17033 7.06176 9.47141 7.57223 9.68285C8.08271 9.8943 8.61421 10 9.16675 10C9.71928 10 10.2508 9.8943 10.7613 9.68285C11.2717 9.47141 11.7223 9.17033 12.113 8.77963C12.5037 8.38893 12.8048 7.93834 13.0162 7.42787C13.2277 6.91739 13.3334 6.38589 13.3334 5.83335C13.3334 5.28082 13.2277 4.74931 13.0162 4.23884C12.8048 3.72836 12.5037 3.27778 12.113 2.88708C11.7223 2.49637 11.2717 2.1953 10.7613 1.98386C10.2508 1.77241 9.71928 1.66669 9.16675 1.66669ZM9.16675 10.8334C7.17091 10.8334 5.35425 11.4117 4.01841 12.2267C3.35175 12.6334 2.78175 13.1134 2.37008 13.635C1.96508 14.1467 1.66675 14.7609 1.66675 15.4167C1.66675 16.1209 2.00925 16.6759 2.50258 17.0717C2.96925 17.4467 3.58508 17.695 4.23925 17.8684C5.55425 18.2159 7.30925 18.3334 9.16675 18.3334C9.35897 18.3334 9.54925 18.332 9.73758 18.3292C10.041 18.325 10.2729 18.1942 10.4334 17.9367C10.5938 17.6792 10.6091 17.4134 10.4792 17.1392C10.1593 16.462 9.99959 15.749 10.0001 15C10.0001 13.9567 10.3192 12.99 10.8642 12.1892C11.0413 11.929 11.0638 11.6561 10.9317 11.3705C10.7997 11.0849 10.5772 10.9253 10.2642 10.8917C9.90536 10.8528 9.53953 10.8334 9.16675 10.8334ZM15.7201 11.6642C15.5593 11.3883 15.3193 11.2504 15.0001 11.2504C14.6808 11.2504 14.4408 11.3883 14.2801 11.6642L13.5217 12.9659L12.0501 13.2842C11.7378 13.3517 11.5324 13.5374 11.4337 13.8412C11.335 14.1451 11.3921 14.4161 11.6051 14.6542L12.6084 15.7775L12.4567 17.2759C12.4245 17.5936 12.5376 17.8463 12.7959 18.034C13.0542 18.2217 13.3295 18.2512 13.6217 18.1225L15.0001 17.5142L16.3784 18.1225C16.6706 18.2512 16.9459 18.2217 17.2042 18.034C17.4626 17.8463 17.5756 17.5936 17.5434 17.2759L17.3917 15.7767L18.3951 14.6542C18.608 14.4161 18.6652 14.1451 18.5665 13.8412C18.4678 13.5374 18.2623 13.3517 17.9501 13.2842L16.4784 12.9659L15.7201 11.6642Z" fill="rgb(255,255,255)" fill-rule="evenodd" />
	</g>
</svg>
