<svg width="24.000000" height="24.000000" viewBox="0 0 24 24" fill="none" xmlns="http://www.w3.org/2000/svg" xmlns:xlink="http://www.w3.org/1999/xlink">
	<desc>
			Created with Pixso.
	</desc>
	<defs>
		<clipPath id="clip297_2804">
			<rect id="Donate Money" width="24.000000" height="24.000000" fill="white" fill-opacity="0"/>
		</clipPath>
	</defs>
	<rect id="Donate Money" width="24.000000" height="24.000000" fill="#FFFFFF" fill-opacity="0"/>
	<g clip-path="url(#clip297_2804)">
		<path id="矢量 98" d="M1.99 9.77L2.83 9.77C3.36 9.77 3.87 9.98 4.24 10.36L6.4 12.52C6.78 12.9 7.28 13.11 7.81 13.11L13.09 13.11C14.01 13.11 14.76 13.86 14.76 14.78C14.76 15.7 14.01 16.45 13.09 16.45L9.76 16.45" stroke="#000000" stroke-opacity="1.000000" stroke-width="1.500000" stroke-linecap="round"/>
		<path id="矢量 99" d="M1.99 17.55L8.8 21.63C9.54 22.12 10.51 22.11 11.25 21.62L21.12 15.06C22.15 14.37 22.3 12.91 21.42 12.04C20.76 11.38 19.72 11.27 18.94 11.79L15.05 14.38" stroke="#000000" stroke-opacity="1.000000" stroke-width="1.500000" stroke-linecap="round"/>
		<path id="矢量 100" d="M13.93 4.99C13.93 3.34 12.59 1.99 10.93 1.99C9.28 1.99 7.93 3.34 7.93 4.99C7.93 6.65 9.28 7.99 10.93 7.99C12.59 7.99 13.93 6.65 13.93 4.99Z" stroke="#000000" stroke-opacity="1.000000" stroke-width="1.500000"/>
		<path id="矢量 101" d="M13.93 4.22C15.16 4.59 16.06 5.74 16.06 7.09C16.06 8.75 14.72 10.09 13.06 10.09C11.72 10.09 10.58 9.21 10.2 7.99" stroke="#000000" stroke-opacity="1.000000" stroke-width="1.500000" stroke-linecap="round"/>
	</g>
</svg>
