<svg viewBox="0 0 20 20" xmlns="http://www.w3.org/2000/svg" xmlns:xlink="http://www.w3.org/1999/xlink" width="20.000000" height="20.000000" fill="none">
	<rect id="police" width="20.000000" height="20.000000" x="0.000000" y="0.000000" />
	<path id="path" d="M2.42758 9.72833C2.69675 8.49583 2.95008 7.34 1.66675 5.41667L4.58342 2.08333C4.58342 2.08333 7.50008 3.33333 10.0001 1.25C12.5001 3.33333 15.4167 2.08333 15.4167 2.08333L18.3334 5.41667C17.0509 7.34 17.3034 8.49583 17.5726 9.72833C17.8276 10.8983 18.0976 12.1367 17.0834 14.1667C16.1192 16.0958 14.4567 16.7692 12.9042 17.3975C11.7742 17.8558 10.7026 18.2892 10.0001 19.1667C9.29842 18.2892 8.22592 17.855 7.09592 17.3975C5.54342 16.7692 3.88175 16.0958 2.91675 14.1667C1.90175 12.1375 2.17258 10.8983 2.42758 9.72833ZM11.9817 10.6442L13.9626 8.7125L11.2242 8.31417L10.0001 5.83333L8.77508 8.31417L6.03758 8.7125L8.01842 10.6442L7.55092 13.3708L10.0001 12.0833L12.4492 13.3708L11.9817 10.6442Z" fill="rgb(255,255,255)" fill-rule="nonzero" />
</svg>
