<svg viewBox="0 0 24 24" xmlns="http://www.w3.org/2000/svg" xmlns:xlink="http://www.w3.org/1999/xlink" width="24.000000" height="24.000000" fill="none">
	<rect id="privacy" width="24.000000" height="24.000000" x="0.000000" y="0.000000" />
	<path id="path" d="M12 17C12.2833 17 12.521 16.904 12.713 16.712C12.905 16.52 13.0007 16.2827 13 16L13 12C13 11.7167 12.904 11.4793 12.712 11.288C12.52 11.0967 12.2827 11.0007 12 11C11.7173 10.9993 11.48 11.0953 11.288 11.288C11.096 11.4807 11 11.718 11 12L11 16C11 16.2833 11.096 16.521 11.288 16.713C11.48 16.905 11.7173 17.0007 12 17ZM12 8.99999C12.2833 8.99999 12.521 8.90399 12.713 8.71199C12.905 8.51999 13.0007 8.28266 13 7.99999C12.9993 7.71733 12.9033 7.47999 12.712 7.28799C12.5207 7.09599 12.2833 6.99999 12 6.99999C11.7167 6.99999 11.4793 7.09599 11.288 7.28799C11.0967 7.47999 11.0007 7.71733 11 7.99999C10.9993 8.28266 11.0953 8.52033 11.288 8.71299C11.4807 8.90566 11.718 9.00133 12 8.99999ZM12 21.9C11.8833 21.9 11.775 21.8917 11.675 21.875C11.575 21.8583 11.475 21.8333 11.375 21.8C9.125 21.05 7.33333 19.6623 6 17.637C4.66667 15.6117 4 13.4327 4 11.1L4 6.37499C4 5.95833 4.121 5.58333 4.363 5.24999C4.605 4.91666 4.91733 4.67499 5.3 4.52499L11.3 2.27499C11.5333 2.19166 11.7667 2.14999 12 2.14999C12.2333 2.14999 12.4667 2.19166 12.7 2.27499L18.7 4.52499C19.0833 4.67499 19.396 4.91666 19.638 5.24999C19.88 5.58333 20.0007 5.95833 20 6.37499L20 11.1C20 13.4333 19.3333 15.6127 18 17.638C16.6667 19.6633 14.875 21.0507 12.625 21.8C12.525 21.8333 12.425 21.8583 12.325 21.875C12.225 21.8917 12.1167 21.9 12 21.9ZM12 19.9C13.7333 19.35 15.1667 18.25 16.3 16.6C17.4333 14.95 18 13.1167 18 11.1L18 6.37499L12 4.12499L6 6.37499L6 11.1C6 13.1167 6.56667 14.95 7.7 16.6C8.83333 18.25 10.2667 19.35 12 19.9Z" fill="rgb(0,0,0)" fill-rule="nonzero" />
</svg>
