<svg width="25.000000" height="25.000031" viewBox="-5 0 30 28" fill="none" xmlns="http://www.w3.org/2000/svg" xmlns:xlink="http://www.w3.org/1999/xlink">
	<desc>
			Created with Pixso.
	</desc>
	<defs/>
	<rect id="redpack" width="25.000000" height="25.000000" transform="translate(0.000000 0.000031)" fill="#FFFFFF" fill-opacity="0"/>
	<path id="矢量 72" d="M23 4.92C21.03 7.43 18.36 9.13 15.43 9.75C15.19 9.25 14.84 8.84 14.41 8.56C13.98 8.27 13.49 8.12 13 8.12C12.5 8.12 12.01 8.27 11.58 8.56C11.15 8.84 10.8 9.25 10.56 9.75C7.63 9.13 4.96 7.43 3 4.92L3 1.5C3 1.16 3.11 0.6 3.32 0.36C3.53 0.13 4.2 0 4.5 0L21.5 0C21.79 0 22.46 0.13 22.67 0.36C22.88 0.6 23 1.16 23 1.5L23 4.92L23 4.92ZM23 8.4L23 23.5C23 23.83 22.88 24.39 22.67 24.63C22.46 24.86 21.79 25 21.5 25L4.5 25C4.2 25 3.53 24.86 3.32 24.63C3.11 24.39 3 23.83 3 23.5L3 8.4C5.1 10.4 7.65 11.72 10.36 12.25C10.55 12.87 10.9 13.4 11.37 13.79C11.85 14.17 12.41 14.37 13 14.37C13.58 14.37 14.14 14.17 14.62 13.79C15.09 13.4 15.44 12.87 15.63 12.25C18.34 11.72 20.89 10.4 23 8.4L23 8.4Z" fill="#F95A2C" fill-opacity="1.000000" fill-rule="evenodd"/>
	<circle id="椭圆 1" cx="13.000000" cy="11.000031" r="3.500000" fill="#F0D35E" fill-opacity="1.000000"/>
</svg>
