<svg xmlns="http://www.w3.org/2000/svg" viewBox="0 0 19.77 24.57">
	<path
		d="M22.46,5.9A13,13,0,0,1,15,11.44a3.28,3.28,0,0,0-1-1.37,2.21,2.21,0,0,0-2.8,0,3.2,3.2,0,0,0-1,1.37A12.84,12.84,0,0,1,2.69,5.9V2.18A2.8,2.8,0,0,1,3.2.87,2.21,2.21,0,0,1,4.4.27L20.7.22A2.74,2.74,0,0,1,22,.87a2.64,2.64,0,0,1,.44,1.26V5.9Z"
		transform="translate(-2.69 -0.22)" style="fill:#f45e4f;fill-rule:evenodd" />
	<path
		d="M22.46,5.77V23.06a2.67,2.67,0,0,1-.33,1.3,1.91,1.91,0,0,1-1.15.42H4.17A1.92,1.92,0,0,1,3,24.36a2.77,2.77,0,0,1-.31-1.3V5.77A14.07,14.07,0,0,0,10,10.18a3.82,3.82,0,0,0,1,1.76,2.35,2.35,0,0,0,1.61.66,2.31,2.31,0,0,0,1.6-.66,3.74,3.74,0,0,0,1-1.76,14.2,14.2,0,0,0,7.29-4.41Z"
		transform="translate(-2.69 -0.22)" style="fill:#e53c3c;fill-rule:evenodd" />
	<circle cx="9.89" cy="10.23" r="3.46" style="fill:#f0d35e" />
</svg>