<svg width="25.980713" height="25.980774" viewBox="5 5 30.9807 35.9808" fill="none" xmlns="http://www.w3.org/2000/svg" xmlns:xlink="http://www.w3.org/1999/xlink">
	<rect id="send" width="30.000000" height="30.000000" fill="#FFFFFF" fill-opacity="0"/>
	<path id="Vector" d="M24.88 12.91L12.93 13.63C4.91 14.11 3.83 18.14 10.54 22.56L12.57 23.9C13.16 24.3 13.53 24.94 13.58 25.64L13.72 28.06C14.19 36.08 18.21 37.17 22.65 30.45L29.24 20.47C32.19 15.99 30.23 12.59 24.88 12.91ZM24.03 19.52L18.18 22.9C17.74 23.15 17.16 23 16.9 22.55C16.65 22.11 16.8 21.53 17.25 21.27L23.09 17.9C23.53 17.64 24.12 17.8 24.37 18.24C24.63 18.69 24.47 19.27 24.03 19.52Z" fill="#292D32" fill-opacity="1.000000" fill-rule="nonzero"/>
</svg>
