<svg viewBox="0 0 20 20" xmlns="http://www.w3.org/2000/svg" xmlns:xlink="http://www.w3.org/1999/xlink" width="20.000000" height="20.000000" fill="none">
	<rect id="tab-icons / star" width="20.000000" height="20.000000" x="0.000000" y="0.000000" />
	<path id="Vector" d="M10.0001 1.66669L12.3486 6.66965C12.4902 6.97123 12.7726 7.1825 13.1019 7.23311L18.3334 8.03717L14.5195 11.9433C14.2977 12.1705 14.1969 12.4896 14.248 12.8029L15.1501 18.3334L10.484 15.7531C10.1829 15.5866 9.81729 15.5866 9.51616 15.7531L4.85008 18.3334L5.75213 12.8029C5.80325 12.4896 5.7025 12.1705 5.48068 11.9433L1.66675 8.03717L6.89826 7.23311C7.22755 7.1825 7.51001 6.97123 7.65157 6.66965L10.0001 1.66669Z" fill="rgb(255,189,18)" fill-rule="evenodd" />
	<path id="Vector" d="M13.9325 5.33729L18.6372 6.06039C19.1831 6.14429 19.6194 6.40889 19.9461 6.85421C20.2727 7.29953 20.3941 7.79512 20.3102 8.341C20.2785 8.54724 20.2161 8.74371 20.1229 8.93041C20.0297 9.1171 19.9102 9.2851 19.7644 9.43439L16.3032 12.9793L17.124 18.0114C17.2129 18.5565 17.0961 19.0532 16.7735 19.5015C16.4509 19.9498 16.0171 20.2184 15.472 20.3073C15.2506 20.3434 15.0294 20.3423 14.8083 20.3039C14.5873 20.2656 14.3786 20.1921 14.1822 20.0836L10.0001 17.7709L5.81793 20.0836C5.33462 20.3508 4.8276 20.4081 4.29686 20.2553C3.76613 20.1026 3.36713 19.7845 3.09986 19.3012C2.99129 19.1049 2.91784 18.8962 2.8795 18.6751C2.84116 18.4541 2.84005 18.2328 2.87617 18.0114L3.69694 12.9793L0.23574 9.43439C-0.150091 9.03923 -0.339707 8.56553 -0.333109 8.01328C-0.326511 7.46103 -0.125631 6.992 0.269531 6.60617C0.41883 6.46039 0.586827 6.34091 0.773522 6.24772C0.960217 6.15453 1.15668 6.09208 1.36292 6.06039L6.06762 5.33729L8.18963 0.81682C8.42432 0.316878 8.80139 -0.0268754 9.32085 -0.214441C9.84031 -0.402006 10.35 -0.378446 10.8499 -0.143762C11.0612 -0.044605 11.2493 0.0874745 11.4143 0.252476C11.5793 0.417476 11.7114 0.605591 11.8105 0.81682L13.9325 5.33729ZM8.89538 4.02L7.65157 6.66965C7.51001 6.97123 7.22755 7.1825 6.89826 7.23311L4.09724 7.66362L1.66675 8.03717L3.38465 9.79662L5.48068 11.9433C5.7025 12.1705 5.80325 12.4896 5.75213 12.8029L4.85008 18.3334L7.07741 17.1017L9.51616 15.7531C9.81729 15.5866 10.1829 15.5866 10.484 15.7531L12.9228 17.1017L15.1501 18.3334L14.7404 15.8214L14.248 12.8029C14.1969 12.4896 14.2977 12.1705 14.5195 11.9433L16.6155 9.79662L18.3334 8.03717L15.9029 7.66362L13.1019 7.23311C12.7726 7.1825 12.4902 6.97123 12.3486 6.66965L11.1048 4.02L10.0001 1.66669L8.89538 4.02Z" fill="rgb(24,25,31)" fill-rule="evenodd" />
</svg>
