<svg width="24.000000" height="24.000000" viewBox="0 0 24 24" fill="none" xmlns="http://www.w3.org/2000/svg" xmlns:xlink="http://www.w3.org/1999/xlink">
	<desc>
			Created with Pixso.
	</desc>
	<defs/>
	<rect id="vuesax/outline/tag" width="24.000000" height="24.000000" fill="#FFFFFF" fill-opacity="0"/>
	<path id="Vector" d="M12.07 21.98C10.66 21.98 9.23 21.44 8.17 20.37L3.64 15.84C2.54 14.74 1.96 13.22 2.03 11.67L2.27 6.66C2.38 4.27 4.27 2.38 6.67 2.26L11.67 2.02C13.22 1.96 14.74 2.53 15.84 3.63L20.37 8.16C22.52 10.32 22.52 13.83 20.37 15.98L15.98 20.37C14.9 21.44 13.49 21.98 12.07 21.98ZM4.7 14.77L9.22 19.29C9.98 20.06 11 20.48 12.07 20.48C13.14 20.48 14.15 20.06 14.91 19.29L19.29 14.91C20.06 14.15 20.48 13.14 20.48 12.07C20.48 11 20.06 9.98 19.29 9.22L14.77 4.69C13.97 3.89 12.86 3.46 11.74 3.52L6.73 3.76C5.11 3.83 3.84 5.1 3.76 6.73L3.52 11.73C3.46 12.86 3.9 13.97 4.7 14.77Z" fill="#000000" fill-opacity="1.000000" fill-rule="nonzero"/>
	<path id="Vector" d="M9.5 12.75C7.7 12.75 6.25 11.29 6.25 9.5C6.25 7.71 7.7 6.25 9.5 6.25C11.29 6.25 12.75 7.71 12.75 9.5C12.75 11.29 11.29 12.75 9.5 12.75ZM9.5 7.75C8.54 7.75 7.75 8.54 7.75 9.5C7.75 10.46 8.54 11.25 9.5 11.25C10.46 11.25 11.25 10.46 11.25 9.5C11.25 8.54 10.46 7.75 9.5 7.75Z" fill="#000000" fill-opacity="1.000000" fill-rule="nonzero"/>
	<g opacity="0.000000"/>
</svg>
