<svg width="20" height="20" viewBox="-20 -20 20 20" fill="none" xmlns="http://www.w3.org/2000/svg" xmlns:xlink="http://www.w3.org/1999/xlink">
	<g transform="rotate(180)">
		<path id="Vector" d="M 7 15.4 L 7 6.9 C 7 6.6 7.1 6.3 7.3 6 L 9.6 2.6 C 9.9 2.1 10.8 1.7 11.6 2 C 12.4 2.3 12.9 3.2 12.7 4 L 12.3 6.7 C 12.3 7 12.3 7.2 12.5 7.4 C 12.6 7.5 12.8 7.6 13.1 7.6 L 16.5 7.6 C 17.1 7.6 17.7 7.9 18 8.3 C 18.4 8.8 18.4 9.4 18.2 10 L 16.1 16.2 C 15.9 17.3 14.8 18.1 13.7 18.1 L 10.4 18.1 C 9.8 18.1 9.1 17.9 8.7 17.5 L 7.6 16.7 C 7.2 16.4 7 15.9 7 15.4 Z" fill="#686a8a" fill-opacity="1.000000" fill-rule="nonzero"/>
		<path id="Vector" d="M 4.3 5.3 L 3.5 5.3 C 2.2 5.3 1.7 5.8 1.7 7 L 1.7 15.4 C 1.7 16.7 2.2 17.2 3.5 17.2 L 4.3 17.2 C 5.6 17.2 6.2 16.7 6.2 15.4 L 6.2 7 C 6.2 5.8 5.6 5.3 4.3 5.3 Z" fill="#686a8a" fill-opacity="1.000000" fill-rule="nonzero"/>
	</g>
</svg>
