<svg
    version="1.1"
    xmlns="http://www.w3.org/2000/svg"
    xmlns:xlink="http://www.w3.org/1999/xlink"
    width="40"
    height="40"
    viewbox="0 0 40 40">
    <g>
        <g transform="translate(0,0) scale(.7 .7)">
            <path class="am-weather-cloud-3" d="M13 26  l20 0 a5 5 0 0 0 0 -10 a5 5 0 0 0 -5 5" fill="none" stroke="white" stroke-width="5.4" stroke-linecap="round"/>
            <path class="am-weather-cloud-2" d="M10 32  l35 0 a5 5 0 0 0 0 -10 a5 5 0 0 0 -5 5" fill="none" stroke="white" stroke-width="5.4" stroke-linecap="round"/>
            <path class="am-weather-cloud-1" d="M16 38  l22 0 a5 5 0 0 1 0 10 a5 5 0 0 1 -5 -5" fill="none" stroke="white" stroke-width="5.4" stroke-linecap="round"/>
            <path class="am-weather-cloud-3" d="M13 26  l20 0 a5 5 0 0 0 0 -10 a5 5 0 0 0 -5 5" fill="none" stroke="#57A0EE" stroke-width="3" stroke-linecap="round"/>
            <path class="am-weather-cloud-2" d="M10 32  l35 0 a5 5 0 0 0 0 -10 a5 5 0 0 0 -5 5" fill="none" stroke="#57A0EE" stroke-width="3" stroke-linecap="round"/>
            <path class="am-weather-cloud-1" d="M16 38  l22 0 a5 5 0 0 1 0 10 a5 5 0 0 1 -5 -5" fill="none" stroke="#57A0EE" stroke-width="3" stroke-linecap="round"/>

        </g>
    </g>
</svg>