<svg width="20.000000" height="20.000000" viewBox="0 0 20 20" fill="none" xmlns="http://www.w3.org/2000/svg" xmlns:xlink="http://www.w3.org/1999/xlink">
	<desc>
			Created with Pixso.
	</desc>
	<defs/>
	<g opacity="0.000000"/>
	<path id="Vector" d="M15.41 3.42L11.25 1.86C10.56 1.6 9.43 1.6 8.74 1.86L4.58 3.42C3.62 3.78 2.84 4.91 2.84 5.93L2.84 12.12C2.84 13.1 3.49 14.39 4.28 14.99L7.86 17.66C9.04 18.54 10.97 18.54 12.14 17.66L15.73 14.99C16.52 14.39 17.17 13.1 17.17 12.12L17.17 5.93C17.15 4.91 16.37 3.78 15.41 3.42ZM9.94 5.85C10.92 5.85 11.72 6.65 11.72 7.64C11.72 8.6 10.96 9.38 10 9.41L9.99 9.41L9.97 9.41C9.95 9.41 9.94 9.41 9.92 9.41C8.92 9.38 8.17 8.6 8.17 7.64C8.16 6.65 8.96 5.85 9.94 5.85ZM11.82 13.63C11.31 13.96 10.65 14.14 10 14.14C9.34 14.14 8.67 13.97 8.17 13.63C7.69 13.31 7.44 12.88 7.43 12.4C7.43 11.94 7.69 11.49 8.17 11.17C9.18 10.5 10.82 10.5 11.83 11.17C12.3 11.49 12.57 11.92 12.57 12.39C12.56 12.86 12.29 13.31 11.82 13.63Z" fill="#FFFFFF" fill-opacity="1.000000" fill-rule="nonzero"/>
</svg>
