<svg width="35.000000" height="35.000000" viewBox="0 0 35 35" fill="none" xmlns="http://www.w3.org/2000/svg" xmlns:xlink="http://www.w3.org/1999/xlink">
	<path id="Vector" d="M12.41 17.88C12.31 17.98 12.17 18.04 12.03 18.04C11.88 18.04 11.74 17.98 11.64 17.88C11.54 17.78 11.48 17.64 11.48 17.5C11.48 17.35 11.54 17.21 11.64 17.11C11.74 17.01 11.88 16.95 12.03 16.95C12.17 16.95 12.31 17.01 12.41 17.11C12.52 17.21 12.57 17.35 12.57 17.5C12.57 17.64 12.52 17.78 12.41 17.88ZM12.57 17.5L12.03 17.5M17.88 17.88C17.78 17.98 17.64 18.04 17.5 18.04C17.35 18.04 17.21 17.98 17.11 17.88C17.01 17.78 16.95 17.64 16.95 17.5C16.95 17.35 17.01 17.21 17.11 17.11C17.21 17.01 17.35 16.95 17.5 16.95C17.64 16.95 17.78 17.01 17.88 17.11C17.98 17.21 18.04 17.35 18.04 17.5C18.04 17.64 17.98 17.78 17.88 17.88ZM18.04 17.5L17.5 17.5M23.35 17.88C23.25 17.98 23.11 18.04 22.96 18.04C22.82 18.04 22.68 17.98 22.58 17.88C22.47 17.78 22.42 17.64 22.42 17.5C22.42 17.35 22.47 17.21 22.58 17.11C22.68 17.01 22.82 16.95 22.96 16.95C23.11 16.95 23.25 17.01 23.35 17.11C23.45 17.21 23.51 17.35 23.51 17.5C23.51 17.64 23.45 17.78 23.35 17.88ZM23.51 17.5L22.96 17.5M17.5 29.53C16.24 29.53 14.98 29.36 13.77 29.03C12.06 30.24 9.97 30.79 7.88 30.58C7.65 30.55 7.42 30.52 7.19 30.48C7.91 29.63 8.4 28.62 8.62 27.53C8.75 26.86 8.43 26.21 7.94 25.74C5.73 23.59 4.37 20.69 4.37 17.5C4.37 10.85 10.25 5.46 17.5 5.46C24.74 5.46 30.62 10.85 30.62 17.5C30.62 24.14 24.74 29.53 17.5 29.53Z" stroke="#18191F" stroke-opacity="1.000000" stroke-width="2.500000" stroke-linejoin="round" stroke-linecap="round"/></svg>
