<svg width="20.000000" height="20.000000" viewBox="0 0 20 20" fill="none" xmlns="http://www.w3.org/2000/svg" xmlns:xlink="http://www.w3.org/1999/xlink">
	<desc>
			Created with Pixso.
	</desc>
	<defs>
		<clipPath id="clip297_2102">
			<rect id="coin-line" width="20.000000" height="20.000000" fill="white" fill-opacity="0"/>
		</clipPath>
	</defs>
	<rect id="coin-line" width="20.000000" height="20.000000" fill="#FFFFFF" fill-opacity="0"/>
	<g clip-path="url(#clip297_2102)">
		<path id="矢量 5" d="M10 3.33C15.06 3.33 19.16 5.57 19.16 8.33L19.16 11.66C19.16 14.42 15.06 16.66 10 16.66C5.02 16.66 0.97 14.5 0.83 11.81L0.83 11.66L0.83 8.33C0.83 5.57 4.93 3.33 10 3.33ZM10 13.33C6.89 13.33 4.15 12.49 2.5 11.2L2.5 11.66C2.5 13.23 5.73 15 10 15C14.17 15 17.36 13.3 17.49 11.76L17.5 11.66L17.5 11.2C15.84 12.49 13.1 13.33 10 13.33ZM10 4.99C5.73 4.99 2.5 6.76 2.5 8.33C2.5 9.9 5.73 11.66 10 11.66C14.26 11.66 17.5 9.9 17.5 8.33C17.5 6.76 14.26 4.99 10 4.99Z" fill="#000000" fill-opacity="1.000000" fill-rule="evenodd"/>
	</g>
</svg>
