<svg width="30.000000" height="30.000000" viewBox="0 0 30 30" fill="none" xmlns="http://www.w3.org/2000/svg" xmlns:xlink="http://www.w3.org/1999/xlink">
	<desc>
			Created with Pixso.
	</desc>
	<defs>
		<clipPath id="clip15_4949">
			<rect id="coin" width="30.000000" height="30.000000" fill="white" fill-opacity="0"/>
		</clipPath>
	</defs>
	<g clip-path="url(#clip15_4949)">
		<circle id="Ellipse 131" cx="15.000000" cy="15.000000" r="11.250000" fill="#FFBD12" fill-opacity="1.000000"/>
		<circle id="Ellipse 131" cx="15.000000" cy="15.000000" r="11.250000" stroke="#000000" stroke-opacity="1.000000" stroke-width="2.000000" stroke-linejoin="round"/>
		<path id="Vector 227" d="M18.12 11.35L17.8 11.08C17.44 10.78 16.99 10.62 16.52 10.62L13.25 10.62C12.14 10.62 11.25 11.52 11.25 12.62L11.25 13C11.25 14.1 12.14 15 13.25 15L16.75 15C17.85 15 18.75 15.89 18.75 17L18.75 17.37C18.75 18.47 17.85 19.37 16.75 19.37L12.81 19.37C12.29 19.37 11.79 19.17 11.41 18.8L11.25 18.64" stroke="#000000" stroke-opacity="1.000000" stroke-width="2.000000" stroke-linejoin="round" stroke-linecap="round"/>
		<path id="Vector 229" d="M15 10L15 8.75" stroke="#000000" stroke-opacity="1.000000" stroke-width="2.000000" stroke-linejoin="round" stroke-linecap="round"/>
		<path id="Vector 230" d="M15 21.25L15 20" stroke="#000000" stroke-opacity="1.000000" stroke-width="2.000000" stroke-linejoin="round" stroke-linecap="round"/>
	</g>
</svg>
