<svg width="20.000000" height="20.000000" viewBox="0 0 20 20" fill="none" xmlns="http://www.w3.org/2000/svg" xmlns:xlink="http://www.w3.org/1999/xlink">
	<desc>
			Created with Pixso.
	</desc>
	<defs>
		<clipPath id="clip297_3070">
			<rect id="fresh" width="20.000000" height="20.000000" fill="white" fill-opacity="0"/>
		</clipPath>
	</defs>
	<g clip-path="url(#clip297_3070)">
		<path id="path" d="M4.56 14.41C4.35 14.34 4.15 14.36 3.93 14.47C3.76 14.56 3.63 14.52 3.55 14.34C3.46 14.17 3.5 14.04 3.68 13.96C4.03 13.79 4.38 13.76 4.74 13.88C5.08 14 5.4 14.25 5.69 14.6C5.77 14.69 5.85 14.8 5.93 14.9L6.05 15.06C6.17 15.21 6.29 15.35 6.43 15.48C6.71 15.71 7.1 15.9 7.75 15.9C8.51 15.9 9.06 15.65 9.55 15.34C9.68 15.27 9.8 15.19 9.92 15.11C10.02 15.04 10.17 14.94 10.28 14.88C10.51 14.73 10.77 14.59 11.04 14.51C11.27 14.44 11.53 14.43 11.78 14.45C12.03 14.47 12.29 14.51 12.54 14.56C12.69 14.59 12.84 14.62 12.98 14.66C13.06 14.68 13.14 14.69 13.22 14.71C13.42 14.75 13.57 14.78 13.65 14.78C14.05 14.78 14.25 14.62 14.52 14.4L14.63 14.31C14.8 14.18 15 14.04 15.26 13.96C15.53 13.88 15.84 13.86 16.24 13.94C16.43 13.97 16.51 14.08 16.47 14.27C16.43 14.46 16.32 14.54 16.13 14.49C15.81 14.43 15.59 14.45 15.42 14.5C15.26 14.55 15.13 14.64 14.98 14.75C14.95 14.78 14.91 14.8 14.88 14.83C14.6 15.06 14.26 15.34 13.65 15.34C13.5 15.34 13.3 15.3 13.1 15.26C13.02 15.24 12.93 15.22 12.84 15.2C12.71 15.17 12.57 15.14 12.43 15.11C12.2 15.06 11.97 15.03 11.74 15.01C11.52 14.99 11.34 15.01 11.2 15.05C11 15.11 10.8 15.21 10.58 15.35C10.48 15.41 10.38 15.48 10.27 15.55C10.15 15.63 9.98 15.74 9.85 15.82C9.31 16.16 8.65 16.46 7.75 16.46C6.97 16.46 6.45 16.23 6.07 15.9C5.9 15.75 5.74 15.59 5.61 15.41L5.47 15.22C5.39 15.13 5.33 15.04 5.26 14.96C5 14.66 4.77 14.49 4.56 14.41ZM14.35 7.04C14.35 7.47 14.2 7.83 13.9 8.14C13.6 8.44 13.23 8.59 12.81 8.59C12.38 8.59 12.02 8.44 11.71 8.14C11.41 7.83 11.26 7.47 11.26 7.04C11.26 6.61 11.41 6.25 11.71 5.95C12.02 5.65 12.38 5.5 12.81 5.5C13.23 5.5 13.6 5.65 13.9 5.95C14.2 6.25 14.35 6.61 14.35 7.04ZM7.89 7.75C8.31 7.75 8.68 7.59 8.98 7.29C9.28 6.99 9.43 6.63 9.43 6.2C9.43 5.77 9.28 5.41 8.98 5.1C8.68 4.8 8.31 4.65 7.89 4.65C7.46 4.65 7.09 4.8 6.79 5.1C6.49 5.41 6.34 5.77 6.34 6.2C6.34 6.63 6.49 6.99 6.79 7.29C7.09 7.59 7.46 7.75 7.89 7.75ZM7.13 9.21C7.45 9.03 7.71 9.1 7.89 9.43C7.99 9.6 8.13 9.76 8.28 9.9C8.63 10.25 9.06 10.47 9.54 10.57C10.12 10.68 10.65 10.59 11.05 10.46C11.21 10.4 11.36 10.34 11.51 10.26C11.56 10.24 11.61 10.21 11.65 10.18C11.96 9.98 12.22 10.04 12.43 10.34C12.63 10.65 12.58 10.91 12.28 11.12C12.19 11.17 12.11 11.22 12.02 11.26C11.88 11.34 11.66 11.44 11.4 11.52C10.88 11.7 10.15 11.84 9.32 11.67C8.62 11.53 8.01 11.21 7.5 10.71C7.34 10.56 7.19 10.39 7.06 10.21C7.01 10.14 6.95 10.06 6.91 9.97C6.73 9.65 6.8 9.39 7.13 9.21Z" fill="#FFFFFF" fill-opacity="1.000000" fill-rule="nonzero"/>
		<path id="path" d="M4.1 3.23C5.45 1.83 7.43 1 10 1C12.56 1 14.54 1.83 15.89 3.23C17.22 4.62 17.87 6.53 17.87 8.59C17.87 9.61 17.71 10.59 17.39 11.5L17.18 12.17C17.17 12.23 17.19 12.33 17.32 12.49C17.46 12.66 17.67 12.83 17.91 12.98C18.14 13.13 18.42 13.32 18.63 13.59C18.86 13.89 19 14.25 19 14.7C19 15.09 18.8 15.43 18.58 15.67C18.36 15.91 18.04 16.11 17.68 16.17C17.47 16.19 17.25 16.19 17.12 16.18C16.97 16.17 16.89 16.17 16.79 16.19C16.7 16.2 16.56 16.24 16.33 16.34C16.14 16.43 16.02 16.54 15.86 16.68C15.72 16.8 15.51 16.98 15.25 17.11C14.97 17.24 14.65 17.3 14.25 17.31C13.74 17.36 13.24 17.22 12.86 17.11C12.19 16.91 11.82 16.84 11.52 17.04C11.39 17.14 11.25 17.23 11.12 17.33C10.77 17.59 10.36 17.89 9.86 18.1C9.35 18.31 8.74 18.43 7.93 18.43C6.26 18.43 4.73 17.45 3.69 16.42C3.59 16.32 3.51 16.29 3.44 16.27C3.34 16.25 3.22 16.25 2.99 16.25L2.82 16.25C1.88 16.31 1 15.6 1 14.62C1 14.3 1.09 13.97 1.24 13.69C1.4 13.41 1.66 13.13 2.01 12.99C2.35 12.85 2.59 12.69 2.73 12.52C2.83 12.39 2.88 12.24 2.8 11.99C2.35 10.96 2.12 9.79 2.12 8.59C2.12 6.53 2.77 4.62 4.1 3.23ZM4.92 4.01C3.82 5.15 3.25 6.76 3.25 8.59C3.25 9.66 3.44 10.66 3.83 11.53L3.85 11.59C4.07 12.22 3.95 12.79 3.61 13.22C3.3 13.61 2.84 13.86 2.44 14.03C2.37 14.06 2.29 14.12 2.22 14.25C2.16 14.36 2.12 14.48 2.12 14.62C2.12 14.87 2.37 15.15 2.76 15.13L2.98 15.12C3.17 15.12 3.45 15.12 3.69 15.18C3.97 15.24 4.23 15.38 4.48 15.62C5.43 16.56 6.68 17.31 7.93 17.31C8.62 17.31 9.08 17.2 9.43 17.06C9.8 16.91 10.08 16.7 10.45 16.42C10.59 16.33 10.73 16.22 10.88 16.11C11.66 15.58 12.51 15.83 13.06 15.99L13.13 16.01C13.57 16.14 13.88 16.22 14.14 16.19L14.21 16.18C14.51 16.18 14.67 16.14 14.77 16.09C14.88 16.04 14.96 15.97 15.11 15.84C15.28 15.69 15.51 15.48 15.86 15.32C16.15 15.19 16.4 15.11 16.62 15.07C16.84 15.04 17.02 15.05 17.16 15.06C17.28 15.06 17.39 15.07 17.51 15.06C17.61 15.03 17.69 14.98 17.76 14.9C17.85 14.8 17.87 14.72 17.87 14.7C17.87 14.49 17.81 14.37 17.75 14.28C17.66 14.17 17.53 14.07 17.3 13.92C17.02 13.75 16.69 13.5 16.45 13.19C16.2 12.89 15.98 12.45 16.08 11.94L16.32 11.14C16.6 10.37 16.75 9.5 16.75 8.59C16.75 6.76 16.17 5.15 15.07 4.01C13.98 2.86 12.31 2.12 10 2.12C7.68 2.12 6.01 2.86 4.92 4.01Z" fill="#FFFFFF" fill-opacity="1.000000" fill-rule="nonzero"/>
	</g>
</svg>
