<svg width="30.000000" height="30.000000" viewBox="0 0 30 30" fill="none" xmlns="http://www.w3.org/2000/svg" xmlns:xlink="http://www.w3.org/1999/xlink">
	<desc>
			Created with Pixso.
	</desc>
	<defs>
		<clipPath id="clip15_3783">
			<rect id="image-send" width="30.000000" height="30.000000" fill="white" fill-opacity="0"/>
		</clipPath>
	</defs>
	<rect id="image-send" width="30.000000" height="30.000000" fill="#FFFFFF" fill-opacity="0"/>
	<g clip-path="url(#clip15_3783)">
		<path id="Vector (Stroke)" d="M6.25 5C5.91 5 5.6 5.13 5.36 5.36C5.13 5.6 5 5.91 5 6.25L5 23.75C5 24.08 5.13 24.39 5.36 24.63C5.6 24.86 5.91 25 6.25 25L23.75 25C24.08 25 24.39 24.86 24.63 24.63C24.86 24.39 25 24.08 25 23.75L25 13.75C25 13.05 25.55 12.5 26.25 12.5C26.94 12.5 27.5 13.05 27.5 13.75L27.5 23.75C27.5 24.74 27.1 25.69 26.4 26.4C25.69 27.1 24.74 27.5 23.75 27.5L6.25 27.5C5.25 27.5 4.3 27.1 3.59 26.4C2.89 25.69 2.5 24.74 2.5 23.75L2.5 6.25C2.5 5.25 2.89 4.3 3.59 3.59C4.3 2.89 5.25 2.5 6.25 2.5L16.25 2.5C16.94 2.5 17.5 3.05 17.5 3.75C17.5 4.44 16.94 5 16.25 5L6.25 5Z" fill="#000000" fill-opacity="1.000000" fill-rule="evenodd"/>
		<path id="Vector (Stroke)" d="M8.41 8.41C9 7.82 9.79 7.5 10.62 7.5C11.45 7.5 12.24 7.82 12.83 8.41C13.42 9 13.75 9.79 13.75 10.62C13.75 11.45 13.42 12.24 12.83 12.83C12.24 13.42 11.45 13.75 10.62 13.75C9.79 13.75 9 13.42 8.41 12.83C7.82 12.24 7.5 11.45 7.5 10.62C7.5 9.79 7.82 9 8.41 8.41ZM10.62 10C10.45 10 10.3 10.06 10.18 10.18C10.06 10.3 10 10.45 10 10.62C10 10.79 10.06 10.94 10.18 11.06C10.3 11.18 10.45 11.25 10.62 11.25C10.79 11.25 10.94 11.18 11.06 11.06C11.18 10.94 11.25 10.79 11.25 10.62C11.25 10.45 11.18 10.3 11.06 10.18C10.94 10.06 10.79 10 10.62 10Z" fill="#000000" fill-opacity="1.000000" fill-rule="evenodd"/>
		<path id="Vector (Stroke)" d="M19.11 11.61C19.6 11.12 20.39 11.12 20.88 11.61L27.13 17.86C27.62 18.35 27.62 19.14 27.13 19.63C26.64 20.12 25.85 20.12 25.36 19.63L20 14.26L7.13 27.13C6.64 27.62 5.85 27.62 5.36 27.13C4.87 26.64 4.87 25.85 5.36 25.36L19.11 11.61Z" fill="#000000" fill-opacity="1.000000" fill-rule="evenodd"/>
		<path id="Vector (Stroke)" d="M23.75 1.25C24.44 1.25 25 1.8 25 2.5L25 10C25 10.69 24.44 11.25 23.75 11.25C23.05 11.25 22.5 10.69 22.5 10L22.5 2.5C22.5 1.8 23.05 1.25 23.75 1.25Z" fill="#000000" fill-opacity="1.000000" fill-rule="evenodd"/>
		<path id="Vector (Stroke)" d="M18.75 6.25C18.75 5.55 19.3 5 20 5L27.5 5C28.19 5 28.75 5.55 28.75 6.25C28.75 6.94 28.19 7.5 27.5 7.5L20 7.5C19.3 7.5 18.75 6.94 18.75 6.25Z" fill="#000000" fill-opacity="1.000000" fill-rule="evenodd"/>
	</g>
</svg>
