<svg width="25.599976" height="25.599976" viewBox="0 0 25.6 25.6" fill="none" xmlns="http://www.w3.org/2000/svg" xmlns:xlink="http://www.w3.org/1999/xlink">
	<desc>
			Created with Pixso.
	</desc>
	<defs>
		<clipPath id="clip297_3083">
			<rect id="keyboard" width="25.599976" height="25.599976" fill="white" fill-opacity="0"/>
		</clipPath>
	</defs>
	<g clip-path="url(#clip297_3083)">
		<path id="path" d="M13 24C19.07 24 24 19.07 24 13C24 6.92 19.07 2 13 2C6.92 2 2 6.92 2 13C2 19.07 6.92 24 13 24Z" fill="#000000" fill-opacity="0" fill-rule="nonzero"/>
		<path id="path" d="M24 13C24 6.92 19.07 2 13 2C6.92 2 2 6.92 2 13C2 19.07 6.92 24 13 24C19.07 24 24 19.07 24 13Z" stroke="#000000" stroke-opacity="1.000000" stroke-width="2.000000" stroke-linejoin="round"/>
		<path id="path" d="M8.04 10.25C8.42 10.25 8.75 10.11 9.02 9.84C9.29 9.57 9.42 9.25 9.42 8.87C9.42 8.49 9.29 8.17 9.02 7.9C8.75 7.63 8.42 7.5 8.04 7.5C7.67 7.5 7.34 7.63 7.07 7.9C6.8 8.17 6.67 8.49 6.67 8.87C6.67 9.25 6.8 9.57 7.07 9.84C7.34 10.11 7.67 10.25 8.04 10.25ZM8.04 14.65C8.42 14.65 8.75 14.51 9.02 14.24C9.29 13.97 9.42 13.65 9.42 13.27C9.42 12.89 9.29 12.57 9.02 12.3C8.75 12.03 8.42 11.9 8.04 11.9C7.67 11.9 7.34 12.03 7.07 12.3C6.8 12.57 6.67 12.89 6.67 13.27C6.67 13.65 6.8 13.97 7.07 14.24C7.34 14.51 7.67 14.65 8.04 14.65ZM13 10.25C13.37 10.25 13.7 10.11 13.97 9.84C14.24 9.57 14.37 9.25 14.37 8.87C14.37 8.49 14.24 8.17 13.97 7.9C13.7 7.63 13.37 7.5 13 7.5C12.62 7.5 12.29 7.63 12.02 7.9C11.75 8.17 11.62 8.49 11.62 8.87C11.62 9.25 11.75 9.57 12.02 9.84C12.29 10.11 12.62 10.25 13 10.25ZM13 14.65C13.37 14.65 13.7 14.51 13.97 14.24C14.24 13.97 14.37 13.65 14.37 13.27C14.37 12.89 14.24 12.57 13.97 12.3C13.7 12.03 13.37 11.9 13 11.9C12.62 11.9 12.29 12.03 12.02 12.3C11.75 12.57 11.62 12.89 11.62 13.27C11.62 13.65 11.75 13.97 12.02 14.24C12.29 14.51 12.62 14.65 13 14.65ZM17.95 10.25C18.32 10.25 18.65 10.11 18.92 9.84C19.19 9.57 19.32 9.25 19.32 8.87C19.32 8.49 19.19 8.17 18.92 7.9C18.65 7.63 18.32 7.5 17.95 7.5C17.57 7.5 17.24 7.63 16.97 7.9C16.7 8.17 16.57 8.49 16.57 8.87C16.57 9.25 16.7 9.57 16.97 9.84C17.24 10.11 17.57 10.25 17.95 10.25ZM17.95 14.65C18.32 14.65 18.65 14.51 18.92 14.24C19.19 13.97 19.32 13.65 19.32 13.27C19.32 12.89 19.19 12.57 18.92 12.3C18.65 12.03 18.32 11.9 17.95 11.9C17.57 11.9 17.24 12.03 16.97 12.3C16.7 12.57 16.57 12.89 16.57 13.27C16.57 13.65 16.7 13.97 16.97 14.24C17.24 14.51 17.57 14.65 17.95 14.65Z" fill="#000000" fill-opacity="1.000000" fill-rule="evenodd"/>
		<path id="path" d="M9.17 18.93L9.15 18.95C8.59 18.95 8.15 18.51 8.15 17.95C8.15 17.39 8.59 16.95 9.15 16.95L9.17 16.96L9.17 18.93ZM16.83 16.96L16.85 16.95C17.41 16.95 17.85 17.39 17.85 17.95C17.85 18.51 17.41 18.95 16.85 18.95L16.83 18.93L16.83 16.96Z" fill="#000000" fill-opacity="0" fill-rule="nonzero"/>
		<path id="path" d="M9.15 17.95L16.85 17.95" stroke="#000000" stroke-opacity="1.000000" stroke-width="2.000000" stroke-linejoin="round" stroke-linecap="round"/>
	</g>
</svg>
