<svg width="20.000000" height="20.000000" viewBox="0 0 20 20" fill="none" xmlns="http://www.w3.org/2000/svg" xmlns:xlink="http://www.w3.org/1999/xlink">
	<desc>
			Created with Pixso.
	</desc>
	<defs/>
	<mask id="mask297_2050" mask-type="alpha" maskUnits="userSpaceOnUse" x="0.000000" y="0.000000" width="20.000000" height="20.000000">
		<rect id="Bounding box" width="20.000000" height="20.000000" fill="#D9D9D9" fill-opacity="1.000000"/>
	</mask>
	<g mask="url(#mask297_2050)">
		<path id="location_on" d="M10 10C10.45 10 10.85 9.83 11.17 9.51C11.5 9.18 11.66 8.79 11.66 8.33C11.66 7.87 11.5 7.48 11.17 7.15C10.85 6.82 10.45 6.66 10 6.66C9.54 6.66 9.14 6.82 8.82 7.15C8.49 7.48 8.33 7.87 8.33 8.33C8.33 8.79 8.49 9.18 8.82 9.51C9.14 9.83 9.54 10 10 10ZM10 16.12C11.69 14.56 12.95 13.15 13.77 11.88C14.59 10.61 15 9.48 15 8.5C15 6.98 14.51 5.74 13.55 4.78C12.58 3.81 11.4 3.33 10 3.33C8.59 3.33 7.41 3.81 6.44 4.78C5.48 5.74 5 6.98 5 8.5C5 9.48 5.4 10.61 6.22 11.88C7.04 13.15 8.3 14.56 10 16.12ZM10 18.02C9.88 18.02 9.77 18 9.66 17.95C9.55 17.91 9.45 17.86 9.37 17.79C7.34 16 5.83 14.33 4.83 12.8C3.83 11.26 3.33 9.83 3.33 8.5C3.33 6.41 4 4.75 5.34 3.52C6.68 2.28 8.23 1.66 10 1.66C11.76 1.66 13.31 2.28 14.65 3.52C15.99 4.75 16.66 6.41 16.66 8.5C16.66 9.83 16.16 11.26 15.16 12.8C14.16 14.33 12.65 16 10.62 17.79C10.54 17.86 10.44 17.91 10.33 17.95C10.22 18 10.11 18.02 10 18.02Z" fill="#000000" fill-opacity="1.000000" fill-rule="evenodd"/>
	</g>
</svg>
