<svg width="30.000000" height="30.000000" viewBox="0 0 30 30" fill="none" xmlns="http://www.w3.org/2000/svg" xmlns:xlink="http://www.w3.org/1999/xlink">
	<desc>
			Created with Pixso.
	</desc>
	<defs/>
	<mask id="mask15_4965" mask-type="alpha" maskUnits="userSpaceOnUse" x="0.000000" y="0.000000" width="30.000000" height="30.000000">
		<rect id="Bounding box" width="30.000000" height="30.000000" fill="#D9D9D9" fill-opacity="1.000000"/>
	</mask>
	<g mask="url(#mask15_4965)">
		<path id="location_on" d="M15 15C15.68 15 16.27 14.75 16.76 14.26C17.25 13.77 17.5 13.18 17.5 12.5C17.5 11.81 17.25 11.22 16.76 10.73C16.27 10.24 15.68 10 15 10C14.31 10 13.72 10.24 13.23 10.73C12.74 11.22 12.5 11.81 12.5 12.5C12.5 13.18 12.74 13.77 13.23 14.26C13.72 14.75 14.31 15 15 15ZM15 24.18C17.54 21.85 19.42 19.73 20.65 17.82C21.88 15.92 22.5 14.22 22.5 12.75C22.5 10.47 21.77 8.61 20.32 7.17C18.87 5.72 17.1 5 15 5C12.89 5 11.11 5.72 9.67 7.17C8.22 8.61 7.5 10.47 7.5 12.75C7.5 14.22 8.11 15.92 9.34 17.82C10.57 19.73 12.45 21.85 15 24.18ZM15 27.03C14.83 27.03 14.66 27 14.5 26.93C14.33 26.87 14.18 26.79 14.06 26.68C11.02 24 8.75 21.5 7.25 19.2C5.75 16.9 5 14.75 5 12.75C5 9.62 6 7.13 8.01 5.28C10.02 3.42 12.35 2.5 15 2.5C17.64 2.5 19.97 3.42 21.98 5.28C23.99 7.13 25 9.62 25 12.75C25 14.75 24.25 16.9 22.75 19.2C21.25 21.5 18.97 24 15.93 26.68C15.81 26.79 15.66 26.87 15.5 26.93C15.33 27 15.16 27.03 15 27.03Z" fill="#000000" fill-opacity="1.000000" fill-rule="evenodd"/>
		<path id="location_on" d="M20.65 17.82C19.42 19.73 17.54 21.85 15 24.18C12.45 21.85 10.57 19.73 9.34 17.82C8.11 15.92 7.5 14.22 7.5 12.75C7.5 10.47 8.22 8.61 9.67 7.17C11.11 5.72 12.89 5 15 5C17.1 5 18.87 5.72 20.32 7.17C21.77 8.61 22.5 10.47 22.5 12.75C22.5 14.22 21.88 15.92 20.65 17.82ZM16.76 14.26C16.27 14.75 15.68 15 15 15C14.31 15 13.72 14.75 13.23 14.26C12.74 13.77 12.5 13.18 12.5 12.5C12.5 11.81 12.74 11.22 13.23 10.73C13.72 10.24 14.31 10 15 10C15.68 10 16.27 10.24 16.76 10.73C17.25 11.22 17.5 11.81 17.5 12.5C17.5 13.18 17.25 13.77 16.76 14.26Z" fill="#ED3905" fill-opacity="1.000000" fill-rule="evenodd"/>
	</g>
</svg>
