<svg width="20.000000" height="20.000000" viewBox="0 0 20 20" fill="none" xmlns="http://www.w3.org/2000/svg" xmlns:xlink="http://www.w3.org/1999/xlink">
	<desc>
			Created with Pixso.
	</desc>
	<defs>
		<clipPath id="clip297_3026">
			<rect id="op" width="20.000000" height="20.000000" fill="white" fill-opacity="0"/>
		</clipPath>
	</defs>
	<g clip-path="url(#clip297_3026)">
		<path id="path" d="M9.16 1.66C8.61 1.66 8.08 1.77 7.57 1.98C7.06 2.19 6.61 2.49 6.22 2.88C5.82 3.27 5.52 3.72 5.31 4.23C5.1 4.74 5 5.28 5 5.83C5 6.38 5.1 6.91 5.31 7.42C5.52 7.93 5.82 8.38 6.22 8.77C6.61 9.17 7.06 9.47 7.57 9.68C8.08 9.89 8.61 10 9.16 10C9.71 10 10.25 9.89 10.76 9.68C11.27 9.47 11.72 9.17 12.11 8.77C12.5 8.38 12.8 7.93 13.01 7.42C13.22 6.91 13.33 6.38 13.33 5.83C13.33 5.28 13.22 4.74 13.01 4.23C12.8 3.72 12.5 3.27 12.11 2.88C11.72 2.49 11.27 2.19 10.76 1.98C10.25 1.77 9.71 1.66 9.16 1.66ZM9.16 10.83C7.17 10.83 5.35 11.41 4.01 12.22C3.35 12.63 2.78 13.11 2.37 13.63C1.96 14.14 1.66 14.76 1.66 15.41C1.66 16.12 2 16.67 2.5 17.07C2.96 17.44 3.58 17.69 4.23 17.86C5.55 18.21 7.3 18.33 9.16 18.33C9.35 18.33 9.54 18.33 9.73 18.32C10.04 18.32 10.27 18.19 10.43 17.93C10.59 17.67 10.6 17.41 10.47 17.13C10.15 16.46 9.99 15.74 10 15C10 13.95 10.31 12.99 10.86 12.18C11.04 11.92 11.06 11.65 10.93 11.37C10.79 11.08 10.57 10.92 10.26 10.89C9.9 10.85 9.53 10.83 9.16 10.83ZM15.72 11.66C15.55 11.38 15.31 11.25 15 11.25C14.68 11.25 14.44 11.38 14.28 11.66L13.52 12.96L12.05 13.28C11.73 13.35 11.53 13.53 11.43 13.84C11.33 14.14 11.39 14.41 11.6 14.65L12.6 15.77L12.45 17.27C12.42 17.59 12.53 17.84 12.79 18.03C13.05 18.22 13.32 18.25 13.62 18.12L15 17.51L16.37 18.12C16.67 18.25 16.94 18.22 17.2 18.03C17.46 17.84 17.57 17.59 17.54 17.27L17.39 15.77L18.39 14.65C18.6 14.41 18.66 14.14 18.56 13.84C18.46 13.53 18.26 13.35 17.95 13.28L16.47 12.96L15.72 11.66Z" fill="#FFFFFF" fill-opacity="1.000000" fill-rule="evenodd"/>
	</g>
</svg>
