<svg width="32.000000" height="32.000000" viewBox="0 0 32 32" fill="none" xmlns="http://www.w3.org/2000/svg" xmlns:xlink="http://www.w3.org/1999/xlink">
	<desc>
			Created with Pixso.
	</desc>
	<defs>
		<clipPath id="clip282_276">
			<rect id="perfact" width="32.000000" height="32.000000" fill="white" fill-opacity="0"/>
		</clipPath>
	</defs>
	<g clip-path="url(#clip282_276)">
		<path id="path" d="M23.93 19.25C23.87 19.41 23.84 19.56 23.83 19.69C23.75 21.06 22.57 22.22 21.2 22.27C20.63 22.3 19.73 22.81 19.41 23.29C19.24 23.54 19.02 23.77 18.77 23.95L24.07 29.25L24.07 24.32L29 24.32L23.93 19.25ZM10.96 23.92C10.68 23.72 10.43 23.49 10.25 23.21C9.93 22.7 9.07 22.2 8.48 22.16C7.11 22.08 5.95 20.9 5.9 19.54C5.89 19.43 5.86 19.31 5.83 19.2L1 24.03L5.92 24.03L5.92 28.96L10.96 23.92ZM25.04 11.89C25.46 11.09 25.19 10.04 24.43 9.54C23.68 9.04 23.04 7.91 23 7.01C22.96 6.11 22.2 5.33 21.3 5.28C20.42 5.23 19.27 4.55 18.8 3.8C18.34 3.09 17.23 2.77 16.46 3.16C15.7 3.53 14.3 3.52 13.55 3.13C12.81 2.74 11.66 3.05 11.2 3.74C10.72 4.46 9.54 5.13 8.67 5.17C7.79 5.21 6.99 5.98 6.94 6.87C6.89 7.75 6.21 8.9 5.47 9.38C4.71 9.86 4.41 10.91 4.82 11.71C5.22 12.52 5.21 13.82 4.79 14.62C4.38 15.42 4.65 16.47 5.4 16.97C6.15 17.46 6.8 18.6 6.83 19.5C6.87 20.4 7.63 21.18 8.53 21.23C9.42 21.28 10.56 21.96 11.04 22.71C11.5 23.42 12.61 23.74 13.38 23.35C13.74 23.17 14.25 23.07 14.79 23.07C15.37 23.07 15.9 23.18 16.28 23.38C16.67 23.58 17.13 23.62 17.57 23.51C18.02 23.4 18.39 23.13 18.63 22.77C19.11 22.04 20.3 21.37 21.17 21.34C22.05 21.3 22.84 20.52 22.89 19.64C22.95 18.76 23.62 17.61 24.37 17.13C25.13 16.65 25.42 15.6 25.02 14.8C24.61 13.99 24.62 12.69 25.04 11.89ZM14.92 21.19C10.55 21.19 6.99 17.63 6.99 13.26C6.99 8.89 10.55 5.33 14.92 5.33C19.29 5.33 22.85 8.89 22.85 13.26C22.85 17.63 19.29 21.19 14.92 21.19ZM14.92 6.27C11.06 6.27 7.93 9.41 7.93 13.26C7.93 17.12 11.06 20.25 14.92 20.25C18.77 20.25 21.91 17.12 21.91 13.26C21.91 9.41 18.77 6.27 14.92 6.27Z" fill="#000000" fill-opacity="1.000000" fill-rule="nonzero"/>
	</g>
</svg>
