<svg width="24.000000" height="24.000000" viewBox="0 0 24 24" fill="none" xmlns="http://www.w3.org/2000/svg" xmlns:xlink="http://www.w3.org/1999/xlink">
	<desc>
			Created with Pixso.
	</desc>
	<defs>
		<clipPath id="clip297_2943">
			<rect id="privacy" width="24.000000" height="24.000000" fill="white" fill-opacity="0"/>
		</clipPath>
	</defs>
	<g clip-path="url(#clip297_2943)">
		<path id="path" d="M12 17C12.28 17 12.52 16.9 12.71 16.71C12.9 16.52 13 16.28 13 16L13 12C13 11.71 12.9 11.47 12.71 11.28C12.52 11.09 12.28 11 12 11C11.71 10.99 11.48 11.09 11.28 11.28C11.09 11.48 11 11.71 11 12L11 16C11 16.28 11.09 16.52 11.28 16.71C11.48 16.9 11.71 17 12 17ZM12 8.99C12.28 8.99 12.52 8.9 12.71 8.71C12.9 8.51 13 8.28 13 7.99C12.99 7.71 12.9 7.48 12.71 7.28C12.52 7.09 12.28 6.99 12 6.99C11.71 6.99 11.47 7.09 11.28 7.28C11.09 7.48 11 7.71 11 7.99C10.99 8.28 11.09 8.52 11.28 8.71C11.48 8.9 11.71 9 12 8.99ZM12 21.9C11.88 21.9 11.77 21.89 11.67 21.87C11.57 21.85 11.47 21.83 11.37 21.8C9.12 21.05 7.33 19.66 6 17.63C4.66 15.61 4 13.43 4 11.1L4 6.37C4 5.95 4.12 5.58 4.36 5.24C4.6 4.91 4.91 4.67 5.3 4.52L11.3 2.27C11.53 2.19 11.76 2.14 12 2.14C12.23 2.14 12.46 2.19 12.7 2.27L18.7 4.52C19.08 4.67 19.39 4.91 19.63 5.24C19.87 5.58 20 5.95 20 6.37L20 11.1C20 13.43 19.33 15.61 18 17.63C16.66 19.66 14.87 21.05 12.62 21.8C12.52 21.83 12.42 21.85 12.32 21.87C12.22 21.89 12.11 21.9 12 21.9ZM12 19.9C13.73 19.35 15.16 18.25 16.29 16.6C17.43 14.95 18 13.11 18 11.1L18 6.37L12 4.12L6 6.37L6 11.1C6 13.11 6.56 14.95 7.69 16.6C8.83 18.25 10.26 19.35 12 19.9Z" fill="#000000" fill-opacity="1.000000" fill-rule="nonzero"/>
	</g>
</svg>
