<svg width="35.000000" height="35.000000" viewBox="0 0 35 35" fill="none" xmlns="http://www.w3.org/2000/svg" xmlns:xlink="http://www.w3.org/1999/xlink">
	<desc>
			Created with Pixso.
	</desc>
	<defs/>
	<path id="Vector" d="M32.08 17.5C32.08 9.46 25.53 2.91 17.5 2.91C9.46 2.91 2.91 9.46 2.91 17.5C2.91 21.72 4.73 25.53 7.62 28.2C7.62 28.21 7.62 28.21 7.61 28.23C7.75 28.37 7.93 28.49 8.07 28.62C8.16 28.7 8.23 28.77 8.32 28.83C8.58 29.05 8.88 29.25 9.15 29.45C9.26 29.53 9.34 29.58 9.45 29.66C9.72 29.85 10.01 30.02 10.32 30.18C10.42 30.24 10.54 30.31 10.64 30.37C10.93 30.53 11.24 30.68 11.56 30.81C11.68 30.87 11.79 30.93 11.91 30.97C12.23 31.1 12.55 31.22 12.87 31.32C12.99 31.36 13.11 31.41 13.22 31.44C13.57 31.54 13.92 31.63 14.27 31.71C14.37 31.74 14.48 31.77 14.59 31.79C15 31.87 15.41 31.93 15.83 31.98C15.89 31.98 15.95 31.99 16.01 32.01C16.5 32.05 17 32.08 17.5 32.08C17.99 32.08 18.49 32.05 18.97 32.01C19.03 32.01 19.08 31.99 19.14 31.98C19.57 31.93 19.97 31.87 20.38 31.79C20.48 31.77 20.59 31.73 20.7 31.71C21.05 31.63 21.42 31.55 21.75 31.44C21.87 31.39 21.99 31.35 22.1 31.32C22.42 31.2 22.76 31.1 23.07 30.97C23.18 30.93 23.3 30.87 23.42 30.81C23.72 30.68 24.03 30.53 24.33 30.37C24.45 30.31 24.55 30.24 24.66 30.18C24.95 30.01 25.24 29.85 25.53 29.66C25.63 29.6 25.72 29.53 25.82 29.45C26.11 29.25 26.39 29.05 26.65 28.83C26.74 28.75 26.81 28.68 26.9 28.62C27.06 28.49 27.22 28.36 27.37 28.23C27.37 28.21 27.37 28.21 27.35 28.2C30.26 25.53 32.08 21.72 32.08 17.5ZM24.7 24.74C20.75 22.09 14.27 22.09 10.29 24.74C9.65 25.17 9.12 25.66 8.69 26.2C6.47 23.96 5.1 20.88 5.1 17.5C5.1 10.66 10.66 5.1 17.5 5.1C24.33 5.1 29.89 10.66 29.89 17.5C29.89 20.88 28.52 23.96 26.3 26.2C25.88 25.66 25.34 25.17 24.7 24.74Z" fill="#000000" fill-opacity="1.000000" fill-rule="nonzero"/>
	<path id="Vector" d="M17.5 10.1C14.48 10.1 12.03 12.55 12.03 15.57C12.03 18.53 14.35 20.94 17.42 21.02C17.47 21.02 17.52 21.02 17.55 21.02C17.58 21.02 17.63 21.02 17.66 21.02C17.67 21.02 17.68 21.02 17.68 21.02C20.63 20.92 22.95 18.53 22.96 15.57C22.96 12.55 20.51 10.1 17.5 10.1Z" fill="#000000" fill-opacity="1.000000" fill-rule="nonzero"/>
	<g opacity="0.000000"/>
</svg>
