<svg width="24.000000" height="24.000000" viewBox="0 0 24 24" fill="none" xmlns="http://www.w3.org/2000/svg" xmlns:xlink="http://www.w3.org/1999/xlink">
	<desc>
			Created with Pixso.
	</desc>
	<defs/>
	<rect id="setting" width="24.000000" height="24.000000" fill="#FFFFFF" fill-opacity="0"/>
	<path id="Vector" d="M16.18 2L7.81 2C4.16 2 2 4.17 2 7.81L2 16.18C2 19.83 4.16 22 7.81 22L16.17 22C19.82 22 21.99 19.83 21.99 16.19L21.99 7.81C22 4.17 19.83 2 16.18 2ZM7.66 5.5C7.66 5.09 8.01 4.75 8.41 4.75C8.83 4.75 9.16 5.09 9.16 5.5L9.16 9.39C9.16 9.81 8.83 10.14 8.41 10.14C8.01 10.14 7.66 9.81 7.66 9.39L7.66 5.5ZM9.16 16.93L9.16 18.5C9.16 18.91 8.83 19.25 8.41 19.25C8.01 19.25 7.66 18.91 7.66 18.5L7.66 16.93C7.66 16.71 7.52 16.52 7.31 16.43C6.36 16 5.69 15.05 5.69 13.95C5.69 12.45 6.91 11.22 8.41 11.22C9.91 11.22 11.14 12.44 11.14 13.95C11.14 15.05 10.47 16 9.52 16.43C9.31 16.52 9.16 16.71 9.16 16.93ZM16.33 18.5C16.33 18.91 15.99 19.25 15.58 19.25C15.16 19.25 14.83 18.91 14.83 18.5L14.83 14.6C14.83 14.19 15.16 13.85 15.58 13.85C15.99 13.85 16.33 14.19 16.33 14.6L16.33 18.5ZM15.58 12.77C14.08 12.77 12.85 11.55 12.85 10.04C12.85 8.93 13.52 7.98 14.47 7.55C14.68 7.46 14.83 7.27 14.83 7.05L14.83 5.5C14.83 5.09 15.16 4.75 15.58 4.75C15.99 4.75 16.33 5.09 16.33 5.5L16.33 7.06C16.33 7.28 16.47 7.47 16.68 7.56C17.63 7.99 18.29 8.94 18.29 10.05C18.29 11.55 17.08 12.77 15.58 12.77Z" fill="#292D32" fill-opacity="1.000000" fill-rule="nonzero"/>
	<g opacity="0.000000"/>
</svg>
