<svg width="20.000000" height="20.000000" viewBox="0 0 20 20" fill="none" xmlns="http://www.w3.org/2000/svg" xmlns:xlink="http://www.w3.org/1999/xlink">
	<desc>
			Created with Pixso.
	</desc>
	<defs>
		<clipPath id="clip297_2493">
			<rect id="tab-icons / star" width="20.000000" height="20.000000" fill="white" fill-opacity="0"/>
		</clipPath>
	</defs>
	<g clip-path="url(#clip297_2493)">
		<path id="Vector" d="M10 1.66L12.34 6.66C12.49 6.97 12.77 7.18 13.1 7.23L18.33 8.03L14.51 11.94C14.29 12.17 14.19 12.48 14.24 12.8L15.15 18.33L10.48 15.75C10.18 15.58 9.81 15.58 9.51 15.75L4.85 18.33L5.75 12.8C5.8 12.48 5.7 12.17 5.48 11.94L1.66 8.03L6.89 7.23C7.22 7.18 7.51 6.97 7.65 6.66L10 1.66Z" fill="#D9D9D9" fill-opacity="1.000000" fill-rule="evenodd"/>
		<path id="Vector" d="M13.93 5.33L18.63 6.06C19.18 6.14 19.61 6.4 19.94 6.85C20.27 7.29 20.39 7.79 20.31 8.34C20.27 8.54 20.21 8.74 20.12 8.93C20.02 9.11 19.91 9.28 19.76 9.43L16.3 12.97L17.12 18.01C17.21 18.55 17.09 19.05 16.77 19.5C16.45 19.94 16.01 20.21 15.47 20.3C15.25 20.34 15.02 20.34 14.8 20.3C14.58 20.26 14.37 20.19 14.18 20.08L10 17.77L5.81 20.08C5.33 20.35 4.82 20.4 4.29 20.25C3.76 20.1 3.36 19.78 3.09 19.3C2.99 19.1 2.91 18.89 2.87 18.67C2.84 18.45 2.84 18.23 2.87 18.01L3.69 12.97L0.23 9.43C-0.16 9.03 -0.34 8.56 -0.34 8.01C-0.33 7.46 -0.13 6.99 0.26 6.6C0.41 6.46 0.58 6.34 0.77 6.24C0.96 6.15 1.15 6.09 1.36 6.06L6.06 5.33L8.18 0.81C8.42 0.31 8.8 -0.03 9.32 -0.22C9.84 -0.41 10.35 -0.38 10.84 -0.15C11.06 -0.05 11.24 0.08 11.41 0.25C11.57 0.41 11.71 0.6 11.81 0.81L13.93 5.33ZM8.89 4.01L7.65 6.66C7.51 6.97 7.22 7.18 6.89 7.23L4.09 7.66L1.66 8.03L3.38 9.79L5.48 11.94C5.7 12.17 5.8 12.48 5.75 12.8L4.85 18.33L7.07 17.1L9.51 15.75C9.81 15.58 10.18 15.58 10.48 15.75L12.92 17.1L15.15 18.33L14.74 15.82L14.24 12.8C14.19 12.48 14.29 12.17 14.51 11.94L16.61 9.79L18.33 8.03L15.9 7.66L13.1 7.23C12.77 7.18 12.49 6.97 12.34 6.66L11.1 4.01L10 1.66L8.89 4.01Z" fill="#18191F" fill-opacity="1.000000" fill-rule="evenodd"/>
	</g>
</svg>
