<svg width="18.500488" height="18.000000" viewBox="0 0 18.5005 18" fill="none" xmlns="http://www.w3.org/2000/svg" xmlns:xlink="http://www.w3.org/1999/xlink">
	<desc>
			Created with Pixso.
	</desc>
	<defs/>
	<path id="Vector" d="M8.96 16.41L8.87 16.41C7.06 15.48 2.77 12.85 1.28 8.7C1.03 7.94 0.46 4.8 2.27 2.85C3.34 1.66 4.34 1.5 5 1.5C6.56 1.5 8.21 2.43 9.2 3.78C10.19 2.34 11.68 1.5 13.41 1.5C14.07 1.5 15.06 1.66 16.22 2.85C18.03 4.8 17.46 8.02 17.21 8.7C15.72 12.94 11.35 15.48 9.62 16.41C9.45 16.5 9.29 16.5 9.2 16.5C9.12 16.5 9.04 16.5 8.96 16.41Z" stroke="#18191F" stroke-opacity="1.000000" stroke-width="2.000000" stroke-linejoin="round"/>
</svg>
