<svg width="20.000000" height="20.000000" viewBox="0 0 20 20" fill="none" xmlns="http://www.w3.org/2000/svg" xmlns:xlink="http://www.w3.org/1999/xlink">
	<desc>
			Created with Pixso.
	</desc>
	<defs>
		<clipPath id="clip297_3056">
			<rect id="vip-crown-fill" width="20.000000" height="20.000000" fill="white" fill-opacity="0"/>
		</clipPath>
	</defs>
	<rect id="vip-crown-fill" width="20.000000" height="20.000000" fill="#FFFFFF" fill-opacity="0"/>
	<g clip-path="url(#clip297_3056)">
		<path id="path" d="M14.41 4.21C13.58 2.32 11.69 1 9.5 1C7.3 1 5.41 2.32 4.58 4.21C4.03 4.26 3.6 4.72 3.6 5.28L3.6 7.42C3.6 7.99 4.03 8.44 4.58 8.49C5.41 10.39 7.3 11.71 9.5 11.71C11.69 11.71 13.58 10.39 14.41 8.49C14.96 8.44 15.39 7.99 15.39 7.42L15.39 5.28C15.39 4.72 14.96 4.26 14.41 4.21ZM13.25 5.82L13.25 6.35C13.25 8.13 11.81 9.57 10.03 9.57L8.96 9.57C7.18 9.57 5.75 8.13 5.75 6.35L5.75 5.82C5.75 4.93 6.46 4.21 7.35 4.21L11.64 4.21C12.53 4.21 13.25 4.93 13.25 5.82ZM8.33 6.44L8.13 5.73C8.1 5.62 8 5.55 7.89 5.55C7.77 5.55 7.67 5.62 7.64 5.73L7.44 6.44L6.73 6.64C6.62 6.67 6.55 6.77 6.55 6.89C6.55 7 6.62 7.1 6.73 7.13L7.44 7.33L7.64 8.04C7.67 8.15 7.77 8.23 7.89 8.23C8 8.23 8.1 8.15 8.13 8.04L8.33 7.33L9.04 7.13C9.15 7.1 9.23 7 9.23 6.89C9.23 6.77 9.15 6.67 9.04 6.64L8.33 6.44ZM5.77 11.59C3.56 12.47 2 14.62 2 17.14C2 17.69 2.44 18.14 2.99 18.14L6.28 18.14L6.28 16C6.28 15.4 6.76 14.92 7.35 14.92L11.64 14.92C12.23 14.92 12.71 15.4 12.71 16L12.71 18.14L16 18.14C16.55 18.14 17 17.69 17 17.14C17 14.62 15.43 12.47 13.22 11.59C12.17 12.34 10.88 12.78 9.5 12.78C8.11 12.78 6.82 12.34 5.77 11.59ZM7.89 16C7.59 16 7.35 16.24 7.35 16.53L7.35 18.14L8.42 18.14L8.42 16.53C8.42 16.24 8.18 16 7.89 16ZM11.1 17.07C11.17 17.07 11.24 17.05 11.31 17.03C11.37 17 11.43 16.96 11.48 16.91C11.53 16.86 11.57 16.8 11.6 16.74C11.62 16.67 11.64 16.6 11.64 16.53C11.64 16.46 11.62 16.39 11.6 16.33C11.57 16.26 11.53 16.2 11.48 16.15C11.43 16.1 11.37 16.06 11.31 16.04C11.24 16.01 11.17 16 11.1 16C11.03 16 10.96 16.01 10.9 16.04C10.83 16.06 10.77 16.1 10.72 16.15C10.67 16.2 10.63 16.26 10.61 16.33C10.58 16.39 10.57 16.46 10.57 16.53C10.57 16.6 10.58 16.67 10.61 16.74C10.63 16.8 10.67 16.86 10.72 16.91C10.77 16.96 10.83 17 10.9 17.03C10.96 17.05 11.03 17.07 11.1 17.07Z" fill="#FFFFFF" fill-opacity="1.000000" fill-rule="nonzero"/>
	</g>
</svg>
